%TF.GenerationSoftware,KiCad,Pcbnew,9.0.6-1.fc43*%
%TF.CreationDate,2026-01-06T11:50:19+01:00*%
%TF.ProjectId,CARL-Air-Brake-Peripheral-Devices-Hardware,4341524c-2d41-4697-922d-4272616b652d,1*%
%TF.SameCoordinates,PX8f0d180PY5f5e100*%
%TF.FileFunction,Paste,Bot*%
%TF.FilePolarity,Positive*%
%FSLAX46Y46*%
G04 Gerber Fmt 4.6, Leading zero omitted, Abs format (unit mm)*
G04 Created by KiCad (PCBNEW 9.0.6-1.fc43) date 2026-01-06 11:50:19*
%MOMM*%
%LPD*%
G01*
G04 APERTURE LIST*
G04 Aperture macros list*
%AMRoundRect*
0 Rectangle with rounded corners*
0 $1 Rounding radius*
0 $2 $3 $4 $5 $6 $7 $8 $9 X,Y pos of 4 corners*
0 Add a 4 corners polygon primitive as box body*
4,1,4,$2,$3,$4,$5,$6,$7,$8,$9,$2,$3,0*
0 Add four circle primitives for the rounded corners*
1,1,$1+$1,$2,$3*
1,1,$1+$1,$4,$5*
1,1,$1+$1,$6,$7*
1,1,$1+$1,$8,$9*
0 Add four rect primitives between the rounded corners*
20,1,$1+$1,$2,$3,$4,$5,0*
20,1,$1+$1,$4,$5,$6,$7,0*
20,1,$1+$1,$6,$7,$8,$9,0*
20,1,$1+$1,$8,$9,$2,$3,0*%
G04 Aperture macros list end*
%ADD10RoundRect,0.250000X1.400000X-1.000000X1.400000X1.000000X-1.400000X1.000000X-1.400000X-1.000000X0*%
%ADD11RoundRect,0.090000X0.360000X0.360000X-0.360000X0.360000X-0.360000X-0.360000X0.360000X-0.360000X0*%
%ADD12RoundRect,0.090000X-0.360000X0.360000X-0.360000X-0.360000X0.360000X-0.360000X0.360000X0.360000X0*%
%ADD13RoundRect,0.045000X-0.180000X0.705000X-0.180000X-0.705000X0.180000X-0.705000X0.180000X0.705000X0*%
%ADD14RoundRect,0.165000X3.010000X0.660000X-3.010000X0.660000X-3.010000X-0.660000X3.010000X-0.660000X0*%
%ADD15RoundRect,0.070000X-0.280000X-0.430000X0.280000X-0.430000X0.280000X0.430000X-0.280000X0.430000X0*%
%ADD16RoundRect,0.090000X-0.360000X-0.360000X0.360000X-0.360000X0.360000X0.360000X-0.360000X0.360000X0*%
%ADD17RoundRect,0.090000X0.360000X-0.360000X0.360000X0.360000X-0.360000X0.360000X-0.360000X-0.360000X0*%
%ADD18RoundRect,0.050000X-0.200000X0.700000X-0.200000X-0.700000X0.200000X-0.700000X0.200000X0.700000X0*%
%ADD19RoundRect,0.050000X-0.700000X0.200000X-0.700000X-0.200000X0.700000X-0.200000X0.700000X0.200000X0*%
G04 APERTURE END LIST*
D10*
%TO.C,D1*%
X-21250000Y-25700000D03*
X-21250000Y-18800000D03*
%TD*%
D11*
%TO.C,R5*%
X3800000Y14000000D03*
X2200000Y14000000D03*
%TD*%
D12*
%TO.C,R2*%
X24250000Y-22950000D03*
X24250000Y-24550000D03*
%TD*%
D11*
%TO.C,C1*%
X550000Y-5750000D03*
X-1050000Y-5750000D03*
%TD*%
%TO.C,R6*%
X3800000Y7500000D03*
X2200000Y7500000D03*
%TD*%
%TO.C,C4*%
X19550000Y-24500000D03*
X17950000Y-24500000D03*
%TD*%
D12*
%TO.C,R1*%
X22250000Y-22950000D03*
X22250000Y-24550000D03*
%TD*%
D13*
%TO.C,U1*%
X-3975000Y-8250000D03*
X-3325000Y-8250000D03*
X-2675000Y-8250000D03*
X-2025000Y-8250000D03*
X-1375000Y-8250000D03*
X-725000Y-8250000D03*
X-75000Y-8250000D03*
X575000Y-8250000D03*
X1225000Y-8250000D03*
X1875000Y-8250000D03*
X2525000Y-8250000D03*
X3175000Y-8250000D03*
X3825000Y-8250000D03*
X4475000Y-8250000D03*
X4475000Y-15750000D03*
X3825000Y-15750000D03*
X3175000Y-15750000D03*
X2525000Y-15750000D03*
X1875000Y-15750000D03*
X1225000Y-15750000D03*
X575000Y-15750000D03*
X-75000Y-15750000D03*
X-725000Y-15750000D03*
X-1375000Y-15750000D03*
X-2025000Y-15750000D03*
X-2675000Y-15750000D03*
X-3325000Y-15750000D03*
X-3975000Y-15750000D03*
%TD*%
D11*
%TO.C,R3*%
X-2200000Y14000000D03*
X-3800000Y14000000D03*
%TD*%
D10*
%TO.C,D2*%
X-14000000Y-25700000D03*
X-14000000Y-18800000D03*
%TD*%
D14*
%TO.C,Y1*%
X21300000Y-8250000D03*
X12200000Y-8250000D03*
%TD*%
D15*
%TO.C,Q2*%
X2050000Y11950000D03*
X3950000Y11950000D03*
X3000000Y9550000D03*
%TD*%
D16*
%TO.C,C3*%
X1700000Y-18250000D03*
X3300000Y-18250000D03*
%TD*%
D11*
%TO.C,C5*%
X23800000Y-12750000D03*
X22200000Y-12750000D03*
%TD*%
D17*
%TO.C,C7*%
X26000000Y-9050000D03*
X26000000Y-7450000D03*
%TD*%
D11*
%TO.C,R11*%
X-27450000Y-1750000D03*
X-29050000Y-1750000D03*
%TD*%
%TO.C,R8*%
X-27450000Y-7750000D03*
X-29050000Y-7750000D03*
%TD*%
%TO.C,R9*%
X-27450000Y-5750000D03*
X-29050000Y-5750000D03*
%TD*%
D12*
%TO.C,R7*%
X7500000Y-18950000D03*
X7500000Y-20550000D03*
%TD*%
D17*
%TO.C,C8*%
X7500000Y-9050000D03*
X7500000Y-7450000D03*
%TD*%
D10*
%TO.C,D3*%
X-6750000Y-25700000D03*
X-6750000Y-18800000D03*
%TD*%
D16*
%TO.C,C2*%
X-4550000Y-5750000D03*
X-2950000Y-5750000D03*
%TD*%
D11*
%TO.C,R4*%
X-2200000Y7500000D03*
X-3800000Y7500000D03*
%TD*%
D18*
%TO.C,U2*%
X13700000Y-12750000D03*
X14500000Y-12750000D03*
X15300000Y-12750000D03*
X16100000Y-12750000D03*
X16900000Y-12750000D03*
X17700000Y-12750000D03*
X18500000Y-12750000D03*
X19300000Y-12750000D03*
D19*
X21000000Y-14450000D03*
X21000000Y-15250000D03*
X21000000Y-16050000D03*
X21000000Y-16850000D03*
X21000000Y-17650000D03*
X21000000Y-18450000D03*
X21000000Y-19250000D03*
X21000000Y-20050000D03*
D18*
X19300000Y-21750000D03*
X18500000Y-21750000D03*
X17700000Y-21750000D03*
X16900000Y-21750000D03*
X16100000Y-21750000D03*
X15300000Y-21750000D03*
X14500000Y-21750000D03*
X13700000Y-21750000D03*
D19*
X12000000Y-20050000D03*
X12000000Y-19250000D03*
X12000000Y-18450000D03*
X12000000Y-17650000D03*
X12000000Y-16850000D03*
X12000000Y-16050000D03*
X12000000Y-15250000D03*
X12000000Y-14450000D03*
%TD*%
D15*
%TO.C,Q1*%
X-3950000Y11950000D03*
X-2050000Y11950000D03*
X-3000000Y9550000D03*
%TD*%
D17*
%TO.C,C6*%
X7500000Y-15050000D03*
X7500000Y-13450000D03*
%TD*%
D11*
%TO.C,R10*%
X-27450000Y-3750000D03*
X-29050000Y-3750000D03*
%TD*%
M02*
