%TF.GenerationSoftware,KiCad,Pcbnew,9.0.6-1.fc43*%
%TF.CreationDate,2026-01-06T11:50:19+01:00*%
%TF.ProjectId,CARL-Air-Brake-Peripheral-Devices-Hardware,4341524c-2d41-4697-922d-4272616b652d,1*%
%TF.SameCoordinates,PX8f0d180PY5f5e100*%
%TF.FileFunction,Legend,Bot*%
%TF.FilePolarity,Positive*%
%FSLAX46Y46*%
G04 Gerber Fmt 4.6, Leading zero omitted, Abs format (unit mm)*
G04 Created by KiCad (PCBNEW 9.0.6-1.fc43) date 2026-01-06 11:50:19*
%MOMM*%
%LPD*%
G01*
G04 APERTURE LIST*
%ADD10C,0.100000*%
%ADD11C,0.150000*%
G04 APERTURE END LIST*
D10*
X-20511906Y-16957419D02*
X-20511906Y-15957419D01*
X-20511906Y-15957419D02*
X-20750001Y-15957419D01*
X-20750001Y-15957419D02*
X-20892858Y-16005038D01*
X-20892858Y-16005038D02*
X-20988096Y-16100276D01*
X-20988096Y-16100276D02*
X-21035715Y-16195514D01*
X-21035715Y-16195514D02*
X-21083334Y-16385990D01*
X-21083334Y-16385990D02*
X-21083334Y-16528847D01*
X-21083334Y-16528847D02*
X-21035715Y-16719323D01*
X-21035715Y-16719323D02*
X-20988096Y-16814561D01*
X-20988096Y-16814561D02*
X-20892858Y-16909800D01*
X-20892858Y-16909800D02*
X-20750001Y-16957419D01*
X-20750001Y-16957419D02*
X-20511906Y-16957419D01*
X-22035715Y-16957419D02*
X-21464287Y-16957419D01*
X-21750001Y-16957419D02*
X-21750001Y-15957419D01*
X-21750001Y-15957419D02*
X-21654763Y-16100276D01*
X-21654763Y-16100276D02*
X-21559525Y-16195514D01*
X-21559525Y-16195514D02*
X-21464287Y-16243133D01*
X5666666Y13542581D02*
X5999999Y14018772D01*
X6238094Y13542581D02*
X6238094Y14542581D01*
X6238094Y14542581D02*
X5857142Y14542581D01*
X5857142Y14542581D02*
X5761904Y14494962D01*
X5761904Y14494962D02*
X5714285Y14447343D01*
X5714285Y14447343D02*
X5666666Y14352105D01*
X5666666Y14352105D02*
X5666666Y14209248D01*
X5666666Y14209248D02*
X5714285Y14114010D01*
X5714285Y14114010D02*
X5761904Y14066391D01*
X5761904Y14066391D02*
X5857142Y14018772D01*
X5857142Y14018772D02*
X6238094Y14018772D01*
X4761904Y14542581D02*
X5238094Y14542581D01*
X5238094Y14542581D02*
X5285713Y14066391D01*
X5285713Y14066391D02*
X5238094Y14114010D01*
X5238094Y14114010D02*
X5142856Y14161629D01*
X5142856Y14161629D02*
X4904761Y14161629D01*
X4904761Y14161629D02*
X4809523Y14114010D01*
X4809523Y14114010D02*
X4761904Y14066391D01*
X4761904Y14066391D02*
X4714285Y13971153D01*
X4714285Y13971153D02*
X4714285Y13733058D01*
X4714285Y13733058D02*
X4761904Y13637820D01*
X4761904Y13637820D02*
X4809523Y13590200D01*
X4809523Y13590200D02*
X4904761Y13542581D01*
X4904761Y13542581D02*
X5142856Y13542581D01*
X5142856Y13542581D02*
X5238094Y13590200D01*
X5238094Y13590200D02*
X5285713Y13637820D01*
X24707419Y-26083333D02*
X24231228Y-25750000D01*
X24707419Y-25511905D02*
X23707419Y-25511905D01*
X23707419Y-25511905D02*
X23707419Y-25892857D01*
X23707419Y-25892857D02*
X23755038Y-25988095D01*
X23755038Y-25988095D02*
X23802657Y-26035714D01*
X23802657Y-26035714D02*
X23897895Y-26083333D01*
X23897895Y-26083333D02*
X24040752Y-26083333D01*
X24040752Y-26083333D02*
X24135990Y-26035714D01*
X24135990Y-26035714D02*
X24183609Y-25988095D01*
X24183609Y-25988095D02*
X24231228Y-25892857D01*
X24231228Y-25892857D02*
X24231228Y-25511905D01*
X23802657Y-26464286D02*
X23755038Y-26511905D01*
X23755038Y-26511905D02*
X23707419Y-26607143D01*
X23707419Y-26607143D02*
X23707419Y-26845238D01*
X23707419Y-26845238D02*
X23755038Y-26940476D01*
X23755038Y-26940476D02*
X23802657Y-26988095D01*
X23802657Y-26988095D02*
X23897895Y-27035714D01*
X23897895Y-27035714D02*
X23993133Y-27035714D01*
X23993133Y-27035714D02*
X24135990Y-26988095D01*
X24135990Y-26988095D02*
X24707419Y-26416667D01*
X24707419Y-26416667D02*
X24707419Y-27035714D01*
X2416666Y-6112180D02*
X2464285Y-6159800D01*
X2464285Y-6159800D02*
X2607142Y-6207419D01*
X2607142Y-6207419D02*
X2702380Y-6207419D01*
X2702380Y-6207419D02*
X2845237Y-6159800D01*
X2845237Y-6159800D02*
X2940475Y-6064561D01*
X2940475Y-6064561D02*
X2988094Y-5969323D01*
X2988094Y-5969323D02*
X3035713Y-5778847D01*
X3035713Y-5778847D02*
X3035713Y-5635990D01*
X3035713Y-5635990D02*
X2988094Y-5445514D01*
X2988094Y-5445514D02*
X2940475Y-5350276D01*
X2940475Y-5350276D02*
X2845237Y-5255038D01*
X2845237Y-5255038D02*
X2702380Y-5207419D01*
X2702380Y-5207419D02*
X2607142Y-5207419D01*
X2607142Y-5207419D02*
X2464285Y-5255038D01*
X2464285Y-5255038D02*
X2416666Y-5302657D01*
X1464285Y-6207419D02*
X2035713Y-6207419D01*
X1749999Y-6207419D02*
X1749999Y-5207419D01*
X1749999Y-5207419D02*
X1845237Y-5350276D01*
X1845237Y-5350276D02*
X1940475Y-5445514D01*
X1940475Y-5445514D02*
X2035713Y-5493133D01*
X5666666Y7042581D02*
X5999999Y7518772D01*
X6238094Y7042581D02*
X6238094Y8042581D01*
X6238094Y8042581D02*
X5857142Y8042581D01*
X5857142Y8042581D02*
X5761904Y7994962D01*
X5761904Y7994962D02*
X5714285Y7947343D01*
X5714285Y7947343D02*
X5666666Y7852105D01*
X5666666Y7852105D02*
X5666666Y7709248D01*
X5666666Y7709248D02*
X5714285Y7614010D01*
X5714285Y7614010D02*
X5761904Y7566391D01*
X5761904Y7566391D02*
X5857142Y7518772D01*
X5857142Y7518772D02*
X6238094Y7518772D01*
X4809523Y8042581D02*
X4999999Y8042581D01*
X4999999Y8042581D02*
X5095237Y7994962D01*
X5095237Y7994962D02*
X5142856Y7947343D01*
X5142856Y7947343D02*
X5238094Y7804486D01*
X5238094Y7804486D02*
X5285713Y7614010D01*
X5285713Y7614010D02*
X5285713Y7233058D01*
X5285713Y7233058D02*
X5238094Y7137820D01*
X5238094Y7137820D02*
X5190475Y7090200D01*
X5190475Y7090200D02*
X5095237Y7042581D01*
X5095237Y7042581D02*
X4904761Y7042581D01*
X4904761Y7042581D02*
X4809523Y7090200D01*
X4809523Y7090200D02*
X4761904Y7137820D01*
X4761904Y7137820D02*
X4714285Y7233058D01*
X4714285Y7233058D02*
X4714285Y7471153D01*
X4714285Y7471153D02*
X4761904Y7566391D01*
X4761904Y7566391D02*
X4809523Y7614010D01*
X4809523Y7614010D02*
X4904761Y7661629D01*
X4904761Y7661629D02*
X5095237Y7661629D01*
X5095237Y7661629D02*
X5190475Y7614010D01*
X5190475Y7614010D02*
X5238094Y7566391D01*
X5238094Y7566391D02*
X5285713Y7471153D01*
X16416666Y-24862180D02*
X16464285Y-24909800D01*
X16464285Y-24909800D02*
X16607142Y-24957419D01*
X16607142Y-24957419D02*
X16702380Y-24957419D01*
X16702380Y-24957419D02*
X16845237Y-24909800D01*
X16845237Y-24909800D02*
X16940475Y-24814561D01*
X16940475Y-24814561D02*
X16988094Y-24719323D01*
X16988094Y-24719323D02*
X17035713Y-24528847D01*
X17035713Y-24528847D02*
X17035713Y-24385990D01*
X17035713Y-24385990D02*
X16988094Y-24195514D01*
X16988094Y-24195514D02*
X16940475Y-24100276D01*
X16940475Y-24100276D02*
X16845237Y-24005038D01*
X16845237Y-24005038D02*
X16702380Y-23957419D01*
X16702380Y-23957419D02*
X16607142Y-23957419D01*
X16607142Y-23957419D02*
X16464285Y-24005038D01*
X16464285Y-24005038D02*
X16416666Y-24052657D01*
X15559523Y-24290752D02*
X15559523Y-24957419D01*
X15797618Y-23909800D02*
X16035713Y-24624085D01*
X16035713Y-24624085D02*
X15416666Y-24624085D01*
X22707419Y-26083333D02*
X22231228Y-25750000D01*
X22707419Y-25511905D02*
X21707419Y-25511905D01*
X21707419Y-25511905D02*
X21707419Y-25892857D01*
X21707419Y-25892857D02*
X21755038Y-25988095D01*
X21755038Y-25988095D02*
X21802657Y-26035714D01*
X21802657Y-26035714D02*
X21897895Y-26083333D01*
X21897895Y-26083333D02*
X22040752Y-26083333D01*
X22040752Y-26083333D02*
X22135990Y-26035714D01*
X22135990Y-26035714D02*
X22183609Y-25988095D01*
X22183609Y-25988095D02*
X22231228Y-25892857D01*
X22231228Y-25892857D02*
X22231228Y-25511905D01*
X22707419Y-27035714D02*
X22707419Y-26464286D01*
X22707419Y-26750000D02*
X21707419Y-26750000D01*
X21707419Y-26750000D02*
X21850276Y-26654762D01*
X21850276Y-26654762D02*
X21945514Y-26559524D01*
X21945514Y-26559524D02*
X21993133Y-26464286D01*
X-6792581Y-11238095D02*
X-5983058Y-11238095D01*
X-5983058Y-11238095D02*
X-5887820Y-11285714D01*
X-5887820Y-11285714D02*
X-5840200Y-11333333D01*
X-5840200Y-11333333D02*
X-5792581Y-11428571D01*
X-5792581Y-11428571D02*
X-5792581Y-11619047D01*
X-5792581Y-11619047D02*
X-5840200Y-11714285D01*
X-5840200Y-11714285D02*
X-5887820Y-11761904D01*
X-5887820Y-11761904D02*
X-5983058Y-11809523D01*
X-5983058Y-11809523D02*
X-6792581Y-11809523D01*
X-5792581Y-12809523D02*
X-5792581Y-12238095D01*
X-5792581Y-12523809D02*
X-6792581Y-12523809D01*
X-6792581Y-12523809D02*
X-6649724Y-12428571D01*
X-6649724Y-12428571D02*
X-6554486Y-12333333D01*
X-6554486Y-12333333D02*
X-6506867Y-12238095D01*
X-5333334Y13542581D02*
X-5000001Y14018772D01*
X-4761906Y13542581D02*
X-4761906Y14542581D01*
X-4761906Y14542581D02*
X-5142858Y14542581D01*
X-5142858Y14542581D02*
X-5238096Y14494962D01*
X-5238096Y14494962D02*
X-5285715Y14447343D01*
X-5285715Y14447343D02*
X-5333334Y14352105D01*
X-5333334Y14352105D02*
X-5333334Y14209248D01*
X-5333334Y14209248D02*
X-5285715Y14114010D01*
X-5285715Y14114010D02*
X-5238096Y14066391D01*
X-5238096Y14066391D02*
X-5142858Y14018772D01*
X-5142858Y14018772D02*
X-4761906Y14018772D01*
X-5666668Y14542581D02*
X-6285715Y14542581D01*
X-6285715Y14542581D02*
X-5952382Y14161629D01*
X-5952382Y14161629D02*
X-6095239Y14161629D01*
X-6095239Y14161629D02*
X-6190477Y14114010D01*
X-6190477Y14114010D02*
X-6238096Y14066391D01*
X-6238096Y14066391D02*
X-6285715Y13971153D01*
X-6285715Y13971153D02*
X-6285715Y13733058D01*
X-6285715Y13733058D02*
X-6238096Y13637820D01*
X-6238096Y13637820D02*
X-6190477Y13590200D01*
X-6190477Y13590200D02*
X-6095239Y13542581D01*
X-6095239Y13542581D02*
X-5809525Y13542581D01*
X-5809525Y13542581D02*
X-5714287Y13590200D01*
X-5714287Y13590200D02*
X-5666668Y13637820D01*
X-13261906Y-16957419D02*
X-13261906Y-15957419D01*
X-13261906Y-15957419D02*
X-13500001Y-15957419D01*
X-13500001Y-15957419D02*
X-13642858Y-16005038D01*
X-13642858Y-16005038D02*
X-13738096Y-16100276D01*
X-13738096Y-16100276D02*
X-13785715Y-16195514D01*
X-13785715Y-16195514D02*
X-13833334Y-16385990D01*
X-13833334Y-16385990D02*
X-13833334Y-16528847D01*
X-13833334Y-16528847D02*
X-13785715Y-16719323D01*
X-13785715Y-16719323D02*
X-13738096Y-16814561D01*
X-13738096Y-16814561D02*
X-13642858Y-16909800D01*
X-13642858Y-16909800D02*
X-13500001Y-16957419D01*
X-13500001Y-16957419D02*
X-13261906Y-16957419D01*
X-14214287Y-16052657D02*
X-14261906Y-16005038D01*
X-14261906Y-16005038D02*
X-14357144Y-15957419D01*
X-14357144Y-15957419D02*
X-14595239Y-15957419D01*
X-14595239Y-15957419D02*
X-14690477Y-16005038D01*
X-14690477Y-16005038D02*
X-14738096Y-16052657D01*
X-14738096Y-16052657D02*
X-14785715Y-16147895D01*
X-14785715Y-16147895D02*
X-14785715Y-16243133D01*
X-14785715Y-16243133D02*
X-14738096Y-16385990D01*
X-14738096Y-16385990D02*
X-14166668Y-16957419D01*
X-14166668Y-16957419D02*
X-14785715Y-16957419D01*
X9726190Y-10731228D02*
X9726190Y-11207419D01*
X10059523Y-10207419D02*
X9726190Y-10731228D01*
X9726190Y-10731228D02*
X9392857Y-10207419D01*
X8535714Y-11207419D02*
X9107142Y-11207419D01*
X8821428Y-11207419D02*
X8821428Y-10207419D01*
X8821428Y-10207419D02*
X8916666Y-10350276D01*
X8916666Y-10350276D02*
X9011904Y-10445514D01*
X9011904Y-10445514D02*
X9107142Y-10493133D01*
X6095238Y10197343D02*
X6190476Y10244962D01*
X6190476Y10244962D02*
X6285714Y10340200D01*
X6285714Y10340200D02*
X6428571Y10483058D01*
X6428571Y10483058D02*
X6523809Y10530677D01*
X6523809Y10530677D02*
X6619047Y10530677D01*
X6571428Y10292581D02*
X6666666Y10340200D01*
X6666666Y10340200D02*
X6761904Y10435439D01*
X6761904Y10435439D02*
X6809523Y10625915D01*
X6809523Y10625915D02*
X6809523Y10959248D01*
X6809523Y10959248D02*
X6761904Y11149724D01*
X6761904Y11149724D02*
X6666666Y11244962D01*
X6666666Y11244962D02*
X6571428Y11292581D01*
X6571428Y11292581D02*
X6380952Y11292581D01*
X6380952Y11292581D02*
X6285714Y11244962D01*
X6285714Y11244962D02*
X6190476Y11149724D01*
X6190476Y11149724D02*
X6142857Y10959248D01*
X6142857Y10959248D02*
X6142857Y10625915D01*
X6142857Y10625915D02*
X6190476Y10435439D01*
X6190476Y10435439D02*
X6285714Y10340200D01*
X6285714Y10340200D02*
X6380952Y10292581D01*
X6380952Y10292581D02*
X6571428Y10292581D01*
X5761904Y11197343D02*
X5714285Y11244962D01*
X5714285Y11244962D02*
X5619047Y11292581D01*
X5619047Y11292581D02*
X5380952Y11292581D01*
X5380952Y11292581D02*
X5285714Y11244962D01*
X5285714Y11244962D02*
X5238095Y11197343D01*
X5238095Y11197343D02*
X5190476Y11102105D01*
X5190476Y11102105D02*
X5190476Y11006867D01*
X5190476Y11006867D02*
X5238095Y10864010D01*
X5238095Y10864010D02*
X5809523Y10292581D01*
X5809523Y10292581D02*
X5190476Y10292581D01*
X166666Y-18612180D02*
X214285Y-18659800D01*
X214285Y-18659800D02*
X357142Y-18707419D01*
X357142Y-18707419D02*
X452380Y-18707419D01*
X452380Y-18707419D02*
X595237Y-18659800D01*
X595237Y-18659800D02*
X690475Y-18564561D01*
X690475Y-18564561D02*
X738094Y-18469323D01*
X738094Y-18469323D02*
X785713Y-18278847D01*
X785713Y-18278847D02*
X785713Y-18135990D01*
X785713Y-18135990D02*
X738094Y-17945514D01*
X738094Y-17945514D02*
X690475Y-17850276D01*
X690475Y-17850276D02*
X595237Y-17755038D01*
X595237Y-17755038D02*
X452380Y-17707419D01*
X452380Y-17707419D02*
X357142Y-17707419D01*
X357142Y-17707419D02*
X214285Y-17755038D01*
X214285Y-17755038D02*
X166666Y-17802657D01*
X-166668Y-17707419D02*
X-785715Y-17707419D01*
X-785715Y-17707419D02*
X-452382Y-18088371D01*
X-452382Y-18088371D02*
X-595239Y-18088371D01*
X-595239Y-18088371D02*
X-690477Y-18135990D01*
X-690477Y-18135990D02*
X-738096Y-18183609D01*
X-738096Y-18183609D02*
X-785715Y-18278847D01*
X-785715Y-18278847D02*
X-785715Y-18516942D01*
X-785715Y-18516942D02*
X-738096Y-18612180D01*
X-738096Y-18612180D02*
X-690477Y-18659800D01*
X-690477Y-18659800D02*
X-595239Y-18707419D01*
X-595239Y-18707419D02*
X-309525Y-18707419D01*
X-309525Y-18707419D02*
X-214287Y-18659800D01*
X-214287Y-18659800D02*
X-166668Y-18612180D01*
X25666666Y-13112180D02*
X25714285Y-13159800D01*
X25714285Y-13159800D02*
X25857142Y-13207419D01*
X25857142Y-13207419D02*
X25952380Y-13207419D01*
X25952380Y-13207419D02*
X26095237Y-13159800D01*
X26095237Y-13159800D02*
X26190475Y-13064561D01*
X26190475Y-13064561D02*
X26238094Y-12969323D01*
X26238094Y-12969323D02*
X26285713Y-12778847D01*
X26285713Y-12778847D02*
X26285713Y-12635990D01*
X26285713Y-12635990D02*
X26238094Y-12445514D01*
X26238094Y-12445514D02*
X26190475Y-12350276D01*
X26190475Y-12350276D02*
X26095237Y-12255038D01*
X26095237Y-12255038D02*
X25952380Y-12207419D01*
X25952380Y-12207419D02*
X25857142Y-12207419D01*
X25857142Y-12207419D02*
X25714285Y-12255038D01*
X25714285Y-12255038D02*
X25666666Y-12302657D01*
X24761904Y-12207419D02*
X25238094Y-12207419D01*
X25238094Y-12207419D02*
X25285713Y-12683609D01*
X25285713Y-12683609D02*
X25238094Y-12635990D01*
X25238094Y-12635990D02*
X25142856Y-12588371D01*
X25142856Y-12588371D02*
X24904761Y-12588371D01*
X24904761Y-12588371D02*
X24809523Y-12635990D01*
X24809523Y-12635990D02*
X24761904Y-12683609D01*
X24761904Y-12683609D02*
X24714285Y-12778847D01*
X24714285Y-12778847D02*
X24714285Y-13016942D01*
X24714285Y-13016942D02*
X24761904Y-13112180D01*
X24761904Y-13112180D02*
X24809523Y-13159800D01*
X24809523Y-13159800D02*
X24904761Y-13207419D01*
X24904761Y-13207419D02*
X25142856Y-13207419D01*
X25142856Y-13207419D02*
X25238094Y-13159800D01*
X25238094Y-13159800D02*
X25285713Y-13112180D01*
X27583333Y-13707419D02*
X27583333Y-14421704D01*
X27583333Y-14421704D02*
X27630952Y-14564561D01*
X27630952Y-14564561D02*
X27726190Y-14659800D01*
X27726190Y-14659800D02*
X27869047Y-14707419D01*
X27869047Y-14707419D02*
X27964285Y-14707419D01*
X26678571Y-14040752D02*
X26678571Y-14707419D01*
X26916666Y-13659800D02*
X27154761Y-14374085D01*
X27154761Y-14374085D02*
X26535714Y-14374085D01*
X26362180Y-5583333D02*
X26409800Y-5535714D01*
X26409800Y-5535714D02*
X26457419Y-5392857D01*
X26457419Y-5392857D02*
X26457419Y-5297619D01*
X26457419Y-5297619D02*
X26409800Y-5154762D01*
X26409800Y-5154762D02*
X26314561Y-5059524D01*
X26314561Y-5059524D02*
X26219323Y-5011905D01*
X26219323Y-5011905D02*
X26028847Y-4964286D01*
X26028847Y-4964286D02*
X25885990Y-4964286D01*
X25885990Y-4964286D02*
X25695514Y-5011905D01*
X25695514Y-5011905D02*
X25600276Y-5059524D01*
X25600276Y-5059524D02*
X25505038Y-5154762D01*
X25505038Y-5154762D02*
X25457419Y-5297619D01*
X25457419Y-5297619D02*
X25457419Y-5392857D01*
X25457419Y-5392857D02*
X25505038Y-5535714D01*
X25505038Y-5535714D02*
X25552657Y-5583333D01*
X25457419Y-5916667D02*
X25457419Y-6583333D01*
X25457419Y-6583333D02*
X26457419Y-6154762D01*
X-24607143Y-2207419D02*
X-24273810Y-1731228D01*
X-24035715Y-2207419D02*
X-24035715Y-1207419D01*
X-24035715Y-1207419D02*
X-24416667Y-1207419D01*
X-24416667Y-1207419D02*
X-24511905Y-1255038D01*
X-24511905Y-1255038D02*
X-24559524Y-1302657D01*
X-24559524Y-1302657D02*
X-24607143Y-1397895D01*
X-24607143Y-1397895D02*
X-24607143Y-1540752D01*
X-24607143Y-1540752D02*
X-24559524Y-1635990D01*
X-24559524Y-1635990D02*
X-24511905Y-1683609D01*
X-24511905Y-1683609D02*
X-24416667Y-1731228D01*
X-24416667Y-1731228D02*
X-24035715Y-1731228D01*
X-25559524Y-2207419D02*
X-24988096Y-2207419D01*
X-25273810Y-2207419D02*
X-25273810Y-1207419D01*
X-25273810Y-1207419D02*
X-25178572Y-1350276D01*
X-25178572Y-1350276D02*
X-25083334Y-1445514D01*
X-25083334Y-1445514D02*
X-24988096Y-1493133D01*
X-26511905Y-2207419D02*
X-25940477Y-2207419D01*
X-26226191Y-2207419D02*
X-26226191Y-1207419D01*
X-26226191Y-1207419D02*
X-26130953Y-1350276D01*
X-26130953Y-1350276D02*
X-26035715Y-1445514D01*
X-26035715Y-1445514D02*
X-25940477Y-1493133D01*
X-25583334Y-8207419D02*
X-25250001Y-7731228D01*
X-25011906Y-8207419D02*
X-25011906Y-7207419D01*
X-25011906Y-7207419D02*
X-25392858Y-7207419D01*
X-25392858Y-7207419D02*
X-25488096Y-7255038D01*
X-25488096Y-7255038D02*
X-25535715Y-7302657D01*
X-25535715Y-7302657D02*
X-25583334Y-7397895D01*
X-25583334Y-7397895D02*
X-25583334Y-7540752D01*
X-25583334Y-7540752D02*
X-25535715Y-7635990D01*
X-25535715Y-7635990D02*
X-25488096Y-7683609D01*
X-25488096Y-7683609D02*
X-25392858Y-7731228D01*
X-25392858Y-7731228D02*
X-25011906Y-7731228D01*
X-26154763Y-7635990D02*
X-26059525Y-7588371D01*
X-26059525Y-7588371D02*
X-26011906Y-7540752D01*
X-26011906Y-7540752D02*
X-25964287Y-7445514D01*
X-25964287Y-7445514D02*
X-25964287Y-7397895D01*
X-25964287Y-7397895D02*
X-26011906Y-7302657D01*
X-26011906Y-7302657D02*
X-26059525Y-7255038D01*
X-26059525Y-7255038D02*
X-26154763Y-7207419D01*
X-26154763Y-7207419D02*
X-26345239Y-7207419D01*
X-26345239Y-7207419D02*
X-26440477Y-7255038D01*
X-26440477Y-7255038D02*
X-26488096Y-7302657D01*
X-26488096Y-7302657D02*
X-26535715Y-7397895D01*
X-26535715Y-7397895D02*
X-26535715Y-7445514D01*
X-26535715Y-7445514D02*
X-26488096Y-7540752D01*
X-26488096Y-7540752D02*
X-26440477Y-7588371D01*
X-26440477Y-7588371D02*
X-26345239Y-7635990D01*
X-26345239Y-7635990D02*
X-26154763Y-7635990D01*
X-26154763Y-7635990D02*
X-26059525Y-7683609D01*
X-26059525Y-7683609D02*
X-26011906Y-7731228D01*
X-26011906Y-7731228D02*
X-25964287Y-7826466D01*
X-25964287Y-7826466D02*
X-25964287Y-8016942D01*
X-25964287Y-8016942D02*
X-26011906Y-8112180D01*
X-26011906Y-8112180D02*
X-26059525Y-8159800D01*
X-26059525Y-8159800D02*
X-26154763Y-8207419D01*
X-26154763Y-8207419D02*
X-26345239Y-8207419D01*
X-26345239Y-8207419D02*
X-26440477Y-8159800D01*
X-26440477Y-8159800D02*
X-26488096Y-8112180D01*
X-26488096Y-8112180D02*
X-26535715Y-8016942D01*
X-26535715Y-8016942D02*
X-26535715Y-7826466D01*
X-26535715Y-7826466D02*
X-26488096Y-7731228D01*
X-26488096Y-7731228D02*
X-26440477Y-7683609D01*
X-26440477Y-7683609D02*
X-26345239Y-7635990D01*
X-25583334Y-6207419D02*
X-25250001Y-5731228D01*
X-25011906Y-6207419D02*
X-25011906Y-5207419D01*
X-25011906Y-5207419D02*
X-25392858Y-5207419D01*
X-25392858Y-5207419D02*
X-25488096Y-5255038D01*
X-25488096Y-5255038D02*
X-25535715Y-5302657D01*
X-25535715Y-5302657D02*
X-25583334Y-5397895D01*
X-25583334Y-5397895D02*
X-25583334Y-5540752D01*
X-25583334Y-5540752D02*
X-25535715Y-5635990D01*
X-25535715Y-5635990D02*
X-25488096Y-5683609D01*
X-25488096Y-5683609D02*
X-25392858Y-5731228D01*
X-25392858Y-5731228D02*
X-25011906Y-5731228D01*
X-26059525Y-6207419D02*
X-26250001Y-6207419D01*
X-26250001Y-6207419D02*
X-26345239Y-6159800D01*
X-26345239Y-6159800D02*
X-26392858Y-6112180D01*
X-26392858Y-6112180D02*
X-26488096Y-5969323D01*
X-26488096Y-5969323D02*
X-26535715Y-5778847D01*
X-26535715Y-5778847D02*
X-26535715Y-5397895D01*
X-26535715Y-5397895D02*
X-26488096Y-5302657D01*
X-26488096Y-5302657D02*
X-26440477Y-5255038D01*
X-26440477Y-5255038D02*
X-26345239Y-5207419D01*
X-26345239Y-5207419D02*
X-26154763Y-5207419D01*
X-26154763Y-5207419D02*
X-26059525Y-5255038D01*
X-26059525Y-5255038D02*
X-26011906Y-5302657D01*
X-26011906Y-5302657D02*
X-25964287Y-5397895D01*
X-25964287Y-5397895D02*
X-25964287Y-5635990D01*
X-25964287Y-5635990D02*
X-26011906Y-5731228D01*
X-26011906Y-5731228D02*
X-26059525Y-5778847D01*
X-26059525Y-5778847D02*
X-26154763Y-5826466D01*
X-26154763Y-5826466D02*
X-26345239Y-5826466D01*
X-26345239Y-5826466D02*
X-26440477Y-5778847D01*
X-26440477Y-5778847D02*
X-26488096Y-5731228D01*
X-26488096Y-5731228D02*
X-26535715Y-5635990D01*
X7957419Y-22083333D02*
X7481228Y-21750000D01*
X7957419Y-21511905D02*
X6957419Y-21511905D01*
X6957419Y-21511905D02*
X6957419Y-21892857D01*
X6957419Y-21892857D02*
X7005038Y-21988095D01*
X7005038Y-21988095D02*
X7052657Y-22035714D01*
X7052657Y-22035714D02*
X7147895Y-22083333D01*
X7147895Y-22083333D02*
X7290752Y-22083333D01*
X7290752Y-22083333D02*
X7385990Y-22035714D01*
X7385990Y-22035714D02*
X7433609Y-21988095D01*
X7433609Y-21988095D02*
X7481228Y-21892857D01*
X7481228Y-21892857D02*
X7481228Y-21511905D01*
X6957419Y-22416667D02*
X6957419Y-23083333D01*
X6957419Y-23083333D02*
X7957419Y-22654762D01*
X7862180Y-5583333D02*
X7909800Y-5535714D01*
X7909800Y-5535714D02*
X7957419Y-5392857D01*
X7957419Y-5392857D02*
X7957419Y-5297619D01*
X7957419Y-5297619D02*
X7909800Y-5154762D01*
X7909800Y-5154762D02*
X7814561Y-5059524D01*
X7814561Y-5059524D02*
X7719323Y-5011905D01*
X7719323Y-5011905D02*
X7528847Y-4964286D01*
X7528847Y-4964286D02*
X7385990Y-4964286D01*
X7385990Y-4964286D02*
X7195514Y-5011905D01*
X7195514Y-5011905D02*
X7100276Y-5059524D01*
X7100276Y-5059524D02*
X7005038Y-5154762D01*
X7005038Y-5154762D02*
X6957419Y-5297619D01*
X6957419Y-5297619D02*
X6957419Y-5392857D01*
X6957419Y-5392857D02*
X7005038Y-5535714D01*
X7005038Y-5535714D02*
X7052657Y-5583333D01*
X7385990Y-6154762D02*
X7338371Y-6059524D01*
X7338371Y-6059524D02*
X7290752Y-6011905D01*
X7290752Y-6011905D02*
X7195514Y-5964286D01*
X7195514Y-5964286D02*
X7147895Y-5964286D01*
X7147895Y-5964286D02*
X7052657Y-6011905D01*
X7052657Y-6011905D02*
X7005038Y-6059524D01*
X7005038Y-6059524D02*
X6957419Y-6154762D01*
X6957419Y-6154762D02*
X6957419Y-6345238D01*
X6957419Y-6345238D02*
X7005038Y-6440476D01*
X7005038Y-6440476D02*
X7052657Y-6488095D01*
X7052657Y-6488095D02*
X7147895Y-6535714D01*
X7147895Y-6535714D02*
X7195514Y-6535714D01*
X7195514Y-6535714D02*
X7290752Y-6488095D01*
X7290752Y-6488095D02*
X7338371Y-6440476D01*
X7338371Y-6440476D02*
X7385990Y-6345238D01*
X7385990Y-6345238D02*
X7385990Y-6154762D01*
X7385990Y-6154762D02*
X7433609Y-6059524D01*
X7433609Y-6059524D02*
X7481228Y-6011905D01*
X7481228Y-6011905D02*
X7576466Y-5964286D01*
X7576466Y-5964286D02*
X7766942Y-5964286D01*
X7766942Y-5964286D02*
X7862180Y-6011905D01*
X7862180Y-6011905D02*
X7909800Y-6059524D01*
X7909800Y-6059524D02*
X7957419Y-6154762D01*
X7957419Y-6154762D02*
X7957419Y-6345238D01*
X7957419Y-6345238D02*
X7909800Y-6440476D01*
X7909800Y-6440476D02*
X7862180Y-6488095D01*
X7862180Y-6488095D02*
X7766942Y-6535714D01*
X7766942Y-6535714D02*
X7576466Y-6535714D01*
X7576466Y-6535714D02*
X7481228Y-6488095D01*
X7481228Y-6488095D02*
X7433609Y-6440476D01*
X7433609Y-6440476D02*
X7385990Y-6345238D01*
X-6011906Y-16957419D02*
X-6011906Y-15957419D01*
X-6011906Y-15957419D02*
X-6250001Y-15957419D01*
X-6250001Y-15957419D02*
X-6392858Y-16005038D01*
X-6392858Y-16005038D02*
X-6488096Y-16100276D01*
X-6488096Y-16100276D02*
X-6535715Y-16195514D01*
X-6535715Y-16195514D02*
X-6583334Y-16385990D01*
X-6583334Y-16385990D02*
X-6583334Y-16528847D01*
X-6583334Y-16528847D02*
X-6535715Y-16719323D01*
X-6535715Y-16719323D02*
X-6488096Y-16814561D01*
X-6488096Y-16814561D02*
X-6392858Y-16909800D01*
X-6392858Y-16909800D02*
X-6250001Y-16957419D01*
X-6250001Y-16957419D02*
X-6011906Y-16957419D01*
X-6916668Y-15957419D02*
X-7535715Y-15957419D01*
X-7535715Y-15957419D02*
X-7202382Y-16338371D01*
X-7202382Y-16338371D02*
X-7345239Y-16338371D01*
X-7345239Y-16338371D02*
X-7440477Y-16385990D01*
X-7440477Y-16385990D02*
X-7488096Y-16433609D01*
X-7488096Y-16433609D02*
X-7535715Y-16528847D01*
X-7535715Y-16528847D02*
X-7535715Y-16766942D01*
X-7535715Y-16766942D02*
X-7488096Y-16862180D01*
X-7488096Y-16862180D02*
X-7440477Y-16909800D01*
X-7440477Y-16909800D02*
X-7345239Y-16957419D01*
X-7345239Y-16957419D02*
X-7059525Y-16957419D01*
X-7059525Y-16957419D02*
X-6964287Y-16909800D01*
X-6964287Y-16909800D02*
X-6916668Y-16862180D01*
X-6083334Y-6112180D02*
X-6035715Y-6159800D01*
X-6035715Y-6159800D02*
X-5892858Y-6207419D01*
X-5892858Y-6207419D02*
X-5797620Y-6207419D01*
X-5797620Y-6207419D02*
X-5654763Y-6159800D01*
X-5654763Y-6159800D02*
X-5559525Y-6064561D01*
X-5559525Y-6064561D02*
X-5511906Y-5969323D01*
X-5511906Y-5969323D02*
X-5464287Y-5778847D01*
X-5464287Y-5778847D02*
X-5464287Y-5635990D01*
X-5464287Y-5635990D02*
X-5511906Y-5445514D01*
X-5511906Y-5445514D02*
X-5559525Y-5350276D01*
X-5559525Y-5350276D02*
X-5654763Y-5255038D01*
X-5654763Y-5255038D02*
X-5797620Y-5207419D01*
X-5797620Y-5207419D02*
X-5892858Y-5207419D01*
X-5892858Y-5207419D02*
X-6035715Y-5255038D01*
X-6035715Y-5255038D02*
X-6083334Y-5302657D01*
X-6464287Y-5302657D02*
X-6511906Y-5255038D01*
X-6511906Y-5255038D02*
X-6607144Y-5207419D01*
X-6607144Y-5207419D02*
X-6845239Y-5207419D01*
X-6845239Y-5207419D02*
X-6940477Y-5255038D01*
X-6940477Y-5255038D02*
X-6988096Y-5302657D01*
X-6988096Y-5302657D02*
X-7035715Y-5397895D01*
X-7035715Y-5397895D02*
X-7035715Y-5493133D01*
X-7035715Y-5493133D02*
X-6988096Y-5635990D01*
X-6988096Y-5635990D02*
X-6416668Y-6207419D01*
X-6416668Y-6207419D02*
X-7035715Y-6207419D01*
X-5333334Y7042581D02*
X-5000001Y7518772D01*
X-4761906Y7042581D02*
X-4761906Y8042581D01*
X-4761906Y8042581D02*
X-5142858Y8042581D01*
X-5142858Y8042581D02*
X-5238096Y7994962D01*
X-5238096Y7994962D02*
X-5285715Y7947343D01*
X-5285715Y7947343D02*
X-5333334Y7852105D01*
X-5333334Y7852105D02*
X-5333334Y7709248D01*
X-5333334Y7709248D02*
X-5285715Y7614010D01*
X-5285715Y7614010D02*
X-5238096Y7566391D01*
X-5238096Y7566391D02*
X-5142858Y7518772D01*
X-5142858Y7518772D02*
X-4761906Y7518772D01*
X-6190477Y7709248D02*
X-6190477Y7042581D01*
X-5952382Y8090200D02*
X-5714287Y7375915D01*
X-5714287Y7375915D02*
X-6333334Y7375915D01*
X9707419Y-16488095D02*
X10516942Y-16488095D01*
X10516942Y-16488095D02*
X10612180Y-16535714D01*
X10612180Y-16535714D02*
X10659800Y-16583333D01*
X10659800Y-16583333D02*
X10707419Y-16678571D01*
X10707419Y-16678571D02*
X10707419Y-16869047D01*
X10707419Y-16869047D02*
X10659800Y-16964285D01*
X10659800Y-16964285D02*
X10612180Y-17011904D01*
X10612180Y-17011904D02*
X10516942Y-17059523D01*
X10516942Y-17059523D02*
X9707419Y-17059523D01*
X9802657Y-17488095D02*
X9755038Y-17535714D01*
X9755038Y-17535714D02*
X9707419Y-17630952D01*
X9707419Y-17630952D02*
X9707419Y-17869047D01*
X9707419Y-17869047D02*
X9755038Y-17964285D01*
X9755038Y-17964285D02*
X9802657Y-18011904D01*
X9802657Y-18011904D02*
X9897895Y-18059523D01*
X9897895Y-18059523D02*
X9993133Y-18059523D01*
X9993133Y-18059523D02*
X10135990Y-18011904D01*
X10135990Y-18011904D02*
X10707419Y-17440476D01*
X10707419Y-17440476D02*
X10707419Y-18059523D01*
X-5904762Y10197343D02*
X-5809524Y10244962D01*
X-5809524Y10244962D02*
X-5714286Y10340200D01*
X-5714286Y10340200D02*
X-5571429Y10483058D01*
X-5571429Y10483058D02*
X-5476191Y10530677D01*
X-5476191Y10530677D02*
X-5380953Y10530677D01*
X-5428572Y10292581D02*
X-5333334Y10340200D01*
X-5333334Y10340200D02*
X-5238096Y10435439D01*
X-5238096Y10435439D02*
X-5190477Y10625915D01*
X-5190477Y10625915D02*
X-5190477Y10959248D01*
X-5190477Y10959248D02*
X-5238096Y11149724D01*
X-5238096Y11149724D02*
X-5333334Y11244962D01*
X-5333334Y11244962D02*
X-5428572Y11292581D01*
X-5428572Y11292581D02*
X-5619048Y11292581D01*
X-5619048Y11292581D02*
X-5714286Y11244962D01*
X-5714286Y11244962D02*
X-5809524Y11149724D01*
X-5809524Y11149724D02*
X-5857143Y10959248D01*
X-5857143Y10959248D02*
X-5857143Y10625915D01*
X-5857143Y10625915D02*
X-5809524Y10435439D01*
X-5809524Y10435439D02*
X-5714286Y10340200D01*
X-5714286Y10340200D02*
X-5619048Y10292581D01*
X-5619048Y10292581D02*
X-5428572Y10292581D01*
X-6809524Y10292581D02*
X-6238096Y10292581D01*
X-6523810Y10292581D02*
X-6523810Y11292581D01*
X-6523810Y11292581D02*
X-6428572Y11149724D01*
X-6428572Y11149724D02*
X-6333334Y11054486D01*
X-6333334Y11054486D02*
X-6238096Y11006867D01*
X24583333Y21292581D02*
X24583333Y20578296D01*
X24583333Y20578296D02*
X24630952Y20435439D01*
X24630952Y20435439D02*
X24726190Y20340200D01*
X24726190Y20340200D02*
X24869047Y20292581D01*
X24869047Y20292581D02*
X24964285Y20292581D01*
X24202380Y21292581D02*
X23583333Y21292581D01*
X23583333Y21292581D02*
X23916666Y20911629D01*
X23916666Y20911629D02*
X23773809Y20911629D01*
X23773809Y20911629D02*
X23678571Y20864010D01*
X23678571Y20864010D02*
X23630952Y20816391D01*
X23630952Y20816391D02*
X23583333Y20721153D01*
X23583333Y20721153D02*
X23583333Y20483058D01*
X23583333Y20483058D02*
X23630952Y20387820D01*
X23630952Y20387820D02*
X23678571Y20340200D01*
X23678571Y20340200D02*
X23773809Y20292581D01*
X23773809Y20292581D02*
X24059523Y20292581D01*
X24059523Y20292581D02*
X24154761Y20340200D01*
X24154761Y20340200D02*
X24202380Y20387820D01*
X7862180Y-16583333D02*
X7909800Y-16535714D01*
X7909800Y-16535714D02*
X7957419Y-16392857D01*
X7957419Y-16392857D02*
X7957419Y-16297619D01*
X7957419Y-16297619D02*
X7909800Y-16154762D01*
X7909800Y-16154762D02*
X7814561Y-16059524D01*
X7814561Y-16059524D02*
X7719323Y-16011905D01*
X7719323Y-16011905D02*
X7528847Y-15964286D01*
X7528847Y-15964286D02*
X7385990Y-15964286D01*
X7385990Y-15964286D02*
X7195514Y-16011905D01*
X7195514Y-16011905D02*
X7100276Y-16059524D01*
X7100276Y-16059524D02*
X7005038Y-16154762D01*
X7005038Y-16154762D02*
X6957419Y-16297619D01*
X6957419Y-16297619D02*
X6957419Y-16392857D01*
X6957419Y-16392857D02*
X7005038Y-16535714D01*
X7005038Y-16535714D02*
X7052657Y-16583333D01*
X6957419Y-17440476D02*
X6957419Y-17250000D01*
X6957419Y-17250000D02*
X7005038Y-17154762D01*
X7005038Y-17154762D02*
X7052657Y-17107143D01*
X7052657Y-17107143D02*
X7195514Y-17011905D01*
X7195514Y-17011905D02*
X7385990Y-16964286D01*
X7385990Y-16964286D02*
X7766942Y-16964286D01*
X7766942Y-16964286D02*
X7862180Y-17011905D01*
X7862180Y-17011905D02*
X7909800Y-17059524D01*
X7909800Y-17059524D02*
X7957419Y-17154762D01*
X7957419Y-17154762D02*
X7957419Y-17345238D01*
X7957419Y-17345238D02*
X7909800Y-17440476D01*
X7909800Y-17440476D02*
X7862180Y-17488095D01*
X7862180Y-17488095D02*
X7766942Y-17535714D01*
X7766942Y-17535714D02*
X7528847Y-17535714D01*
X7528847Y-17535714D02*
X7433609Y-17488095D01*
X7433609Y-17488095D02*
X7385990Y-17440476D01*
X7385990Y-17440476D02*
X7338371Y-17345238D01*
X7338371Y-17345238D02*
X7338371Y-17154762D01*
X7338371Y-17154762D02*
X7385990Y-17059524D01*
X7385990Y-17059524D02*
X7433609Y-17011905D01*
X7433609Y-17011905D02*
X7528847Y-16964286D01*
X-24607143Y-4207419D02*
X-24273810Y-3731228D01*
X-24035715Y-4207419D02*
X-24035715Y-3207419D01*
X-24035715Y-3207419D02*
X-24416667Y-3207419D01*
X-24416667Y-3207419D02*
X-24511905Y-3255038D01*
X-24511905Y-3255038D02*
X-24559524Y-3302657D01*
X-24559524Y-3302657D02*
X-24607143Y-3397895D01*
X-24607143Y-3397895D02*
X-24607143Y-3540752D01*
X-24607143Y-3540752D02*
X-24559524Y-3635990D01*
X-24559524Y-3635990D02*
X-24511905Y-3683609D01*
X-24511905Y-3683609D02*
X-24416667Y-3731228D01*
X-24416667Y-3731228D02*
X-24035715Y-3731228D01*
X-25559524Y-4207419D02*
X-24988096Y-4207419D01*
X-25273810Y-4207419D02*
X-25273810Y-3207419D01*
X-25273810Y-3207419D02*
X-25178572Y-3350276D01*
X-25178572Y-3350276D02*
X-25083334Y-3445514D01*
X-25083334Y-3445514D02*
X-24988096Y-3493133D01*
X-26178572Y-3207419D02*
X-26273810Y-3207419D01*
X-26273810Y-3207419D02*
X-26369048Y-3255038D01*
X-26369048Y-3255038D02*
X-26416667Y-3302657D01*
X-26416667Y-3302657D02*
X-26464286Y-3397895D01*
X-26464286Y-3397895D02*
X-26511905Y-3588371D01*
X-26511905Y-3588371D02*
X-26511905Y-3826466D01*
X-26511905Y-3826466D02*
X-26464286Y-4016942D01*
X-26464286Y-4016942D02*
X-26416667Y-4112180D01*
X-26416667Y-4112180D02*
X-26369048Y-4159800D01*
X-26369048Y-4159800D02*
X-26273810Y-4207419D01*
X-26273810Y-4207419D02*
X-26178572Y-4207419D01*
X-26178572Y-4207419D02*
X-26083334Y-4159800D01*
X-26083334Y-4159800D02*
X-26035715Y-4112180D01*
X-26035715Y-4112180D02*
X-25988096Y-4016942D01*
X-25988096Y-4016942D02*
X-25940477Y-3826466D01*
X-25940477Y-3826466D02*
X-25940477Y-3588371D01*
X-25940477Y-3588371D02*
X-25988096Y-3397895D01*
X-25988096Y-3397895D02*
X-26035715Y-3302657D01*
X-26035715Y-3302657D02*
X-26083334Y-3255038D01*
X-26083334Y-3255038D02*
X-26178572Y-3207419D01*
%TO.C,D1*%
X-17950000Y-27150000D02*
X-17950000Y-17350000D01*
X-24550000Y-17350000D02*
X-24550000Y-27150000D01*
X-17950000Y-17350000D02*
X-24550000Y-17350000D01*
%TO.C,R5*%
X3800000Y13300000D02*
X2200000Y13300000D01*
X3800000Y14700000D02*
X2200000Y14700000D01*
%TO.C,R2*%
X24950000Y-22950000D02*
X24950000Y-24550000D01*
X23550000Y-22950000D02*
X23550000Y-24550000D01*
%TO.C,C1*%
X550000Y-6450000D02*
X-1050000Y-6450000D01*
X550000Y-5050000D02*
X-1050000Y-5050000D01*
%TO.C,R6*%
X3800000Y6800000D02*
X2200000Y6800000D01*
X3800000Y8200000D02*
X2200000Y8200000D01*
%TO.C,C4*%
X19550000Y-25200000D02*
X17950000Y-25200000D01*
X19550000Y-23800000D02*
X17950000Y-23800000D01*
%TO.C,R1*%
X22950000Y-22950000D02*
X22950000Y-24550000D01*
X21550000Y-22950000D02*
X21550000Y-24550000D01*
%TO.C,U1*%
X5750000Y-9000000D02*
X5750000Y-15000000D01*
X4950000Y-9000000D02*
X5750000Y-9000000D01*
X-5250000Y-9000000D02*
X-4450000Y-9000000D01*
X5750000Y-15000000D02*
X4950000Y-15000000D01*
X-4450000Y-15000000D02*
X-5250000Y-15000000D01*
X-5250000Y-15000000D02*
X-5250000Y-9000000D01*
D11*
X-5375000Y-8800000D02*
G75*
G02*
X-5525000Y-8800000I-75000J0D01*
G01*
X-5525000Y-8800000D02*
G75*
G02*
X-5375000Y-8800000I75000J0D01*
G01*
D10*
%TO.C,R3*%
X-2200000Y13300000D02*
X-3800000Y13300000D01*
X-2200000Y14700000D02*
X-3800000Y14700000D01*
%TO.C,D2*%
X-10700000Y-27150000D02*
X-10700000Y-17350000D01*
X-17300000Y-17350000D02*
X-17300000Y-27150000D01*
X-10700000Y-17350000D02*
X-17300000Y-17350000D01*
%TO.C,Y1*%
X22750000Y-10850000D02*
X10750000Y-10850000D01*
X22750000Y-9350000D02*
X22750000Y-10850000D01*
X22750000Y-7150000D02*
X22750000Y-5650000D01*
X22750000Y-5650000D02*
X10750000Y-5650000D01*
X10750000Y-10850000D02*
X10750000Y-9350000D01*
X10750000Y-5650000D02*
X10750000Y-7150000D01*
%TO.C,Q2*%
X1300000Y9850000D02*
X1300000Y11650000D01*
X2400000Y9850000D02*
X1300000Y9850000D01*
X2700000Y11650000D02*
X3300000Y11650000D01*
X3600000Y9850000D02*
X4700000Y9850000D01*
X4700000Y9850000D02*
X4700000Y11650000D01*
%TO.C,C3*%
X1700000Y-17550000D02*
X3300000Y-17550000D01*
X1700000Y-18950000D02*
X3300000Y-18950000D01*
%TO.C,C5*%
X23800000Y-13450000D02*
X22200000Y-13450000D01*
X23800000Y-12050000D02*
X22200000Y-12050000D01*
%TO.C,J4*%
X26100000Y-20900000D02*
X26100000Y-19200000D01*
X27800000Y-20900000D02*
X26100000Y-20900000D01*
X31700000Y-20700000D02*
X26300000Y-20700000D01*
X26300000Y-15300000D01*
X31700000Y-15300000D01*
X31700000Y-20700000D01*
%TO.C,C7*%
X25300000Y-9050000D02*
X25300000Y-7450000D01*
X26700000Y-9050000D02*
X26700000Y-7450000D01*
%TO.C,R11*%
X-27450000Y-2450000D02*
X-29050000Y-2450000D01*
X-27450000Y-1050000D02*
X-29050000Y-1050000D01*
%TO.C,R8*%
X-27450000Y-8450000D02*
X-29050000Y-8450000D01*
X-27450000Y-7050000D02*
X-29050000Y-7050000D01*
%TO.C,R9*%
X-27450000Y-6450000D02*
X-29050000Y-6450000D01*
X-27450000Y-5050000D02*
X-29050000Y-5050000D01*
%TO.C,R7*%
X8200000Y-18950000D02*
X8200000Y-20550000D01*
X6800000Y-18950000D02*
X6800000Y-20550000D01*
%TO.C,C8*%
X6800000Y-9050000D02*
X6800000Y-7450000D01*
X8200000Y-9050000D02*
X8200000Y-7450000D01*
%TO.C,D3*%
X-3450000Y-27150000D02*
X-3450000Y-17350000D01*
X-10050000Y-17350000D02*
X-10050000Y-27150000D01*
X-3450000Y-17350000D02*
X-10050000Y-17350000D01*
%TO.C,C2*%
X-4550000Y-5050000D02*
X-2950000Y-5050000D01*
X-4550000Y-6450000D02*
X-2950000Y-6450000D01*
%TO.C,R4*%
X-2200000Y6800000D02*
X-3800000Y6800000D01*
X-2200000Y8200000D02*
X-3800000Y8200000D01*
%TO.C,U2*%
X20200000Y-13550000D02*
X20200000Y-13950000D01*
X19800000Y-13550000D02*
X20200000Y-13550000D01*
X12800000Y-13550000D02*
X13200000Y-13550000D01*
X12800000Y-13950000D02*
X12800000Y-13550000D01*
X20200000Y-20550000D02*
X20200000Y-20950000D01*
X12800000Y-20550000D02*
X12800000Y-20950000D01*
X20200000Y-20950000D02*
X19800000Y-20950000D01*
X12800000Y-20950000D02*
X13200000Y-20950000D01*
D11*
X12675000Y-13350000D02*
G75*
G02*
X12525000Y-13350000I-75000J0D01*
G01*
X12525000Y-13350000D02*
G75*
G02*
X12675000Y-13350000I75000J0D01*
G01*
D10*
%TO.C,Q1*%
X-4700000Y9850000D02*
X-4700000Y11650000D01*
X-3600000Y9850000D02*
X-4700000Y9850000D01*
X-3300000Y11650000D02*
X-2700000Y11650000D01*
X-2400000Y9850000D02*
X-1300000Y9850000D01*
X-1300000Y9850000D02*
X-1300000Y11650000D01*
%TO.C,J3*%
X-25800000Y27400000D02*
X-24100000Y27400000D01*
X-25800000Y25700000D02*
X-25800000Y27400000D01*
X-25600000Y21800000D02*
X25600000Y21800000D01*
X25600000Y27200000D01*
X-25600000Y27200000D01*
X-25600000Y21800000D01*
%TO.C,C6*%
X6800000Y-15050000D02*
X6800000Y-13450000D01*
X8200000Y-15050000D02*
X8200000Y-13450000D01*
%TO.C,R10*%
X-27450000Y-4450000D02*
X-29050000Y-4450000D01*
X-27450000Y-3050000D02*
X-29050000Y-3050000D01*
%TD*%
M02*
