%TF.GenerationSoftware,KiCad,Pcbnew,9.0.6-1.fc43*%
%TF.CreationDate,2026-01-06T11:50:19+01:00*%
%TF.ProjectId,CARL-Air-Brake-Peripheral-Devices-Hardware,4341524c-2d41-4697-922d-4272616b652d,1*%
%TF.SameCoordinates,PX8f0d180PY5f5e100*%
%TF.FileFunction,Legend,Top*%
%TF.FilePolarity,Positive*%
%FSLAX46Y46*%
G04 Gerber Fmt 4.6, Leading zero omitted, Abs format (unit mm)*
G04 Created by KiCad (PCBNEW 9.0.6-1.fc43) date 2026-01-06 11:50:19*
%MOMM*%
%LPD*%
G01*
G04 APERTURE LIST*
%ADD10C,0.100000*%
G04 APERTURE END LIST*
D10*
X-16292581Y-21219925D02*
X-16292581Y-21696115D01*
X-16292581Y-21696115D02*
X-15816391Y-21743734D01*
X-15816391Y-21743734D02*
X-15864010Y-21696115D01*
X-15864010Y-21696115D02*
X-15911629Y-21600877D01*
X-15911629Y-21600877D02*
X-15911629Y-21362782D01*
X-15911629Y-21362782D02*
X-15864010Y-21267544D01*
X-15864010Y-21267544D02*
X-15816391Y-21219925D01*
X-15816391Y-21219925D02*
X-15721153Y-21172306D01*
X-15721153Y-21172306D02*
X-15483058Y-21172306D01*
X-15483058Y-21172306D02*
X-15387820Y-21219925D01*
X-15387820Y-21219925D02*
X-15340200Y-21267544D01*
X-15340200Y-21267544D02*
X-15292581Y-21362782D01*
X-15292581Y-21362782D02*
X-15292581Y-21600877D01*
X-15292581Y-21600877D02*
X-15340200Y-21696115D01*
X-15340200Y-21696115D02*
X-15387820Y-21743734D01*
X-16292581Y-20886591D02*
X-15292581Y-20553258D01*
X-15292581Y-20553258D02*
X-16292581Y-20219925D01*
X4303884Y-23957419D02*
X4303884Y-22957419D01*
X4303884Y-22957419D02*
X4637217Y-23671704D01*
X4637217Y-23671704D02*
X4970550Y-22957419D01*
X4970550Y-22957419D02*
X4970550Y-23957419D01*
X5637217Y-22957419D02*
X5827693Y-22957419D01*
X5827693Y-22957419D02*
X5922931Y-23005038D01*
X5922931Y-23005038D02*
X6018169Y-23100276D01*
X6018169Y-23100276D02*
X6065788Y-23290752D01*
X6065788Y-23290752D02*
X6065788Y-23624085D01*
X6065788Y-23624085D02*
X6018169Y-23814561D01*
X6018169Y-23814561D02*
X5922931Y-23909800D01*
X5922931Y-23909800D02*
X5827693Y-23957419D01*
X5827693Y-23957419D02*
X5637217Y-23957419D01*
X5637217Y-23957419D02*
X5541979Y-23909800D01*
X5541979Y-23909800D02*
X5446741Y-23814561D01*
X5446741Y-23814561D02*
X5399122Y-23624085D01*
X5399122Y-23624085D02*
X5399122Y-23290752D01*
X5399122Y-23290752D02*
X5446741Y-23100276D01*
X5446741Y-23100276D02*
X5541979Y-23005038D01*
X5541979Y-23005038D02*
X5637217Y-22957419D01*
X6446741Y-23909800D02*
X6589598Y-23957419D01*
X6589598Y-23957419D02*
X6827693Y-23957419D01*
X6827693Y-23957419D02*
X6922931Y-23909800D01*
X6922931Y-23909800D02*
X6970550Y-23862180D01*
X6970550Y-23862180D02*
X7018169Y-23766942D01*
X7018169Y-23766942D02*
X7018169Y-23671704D01*
X7018169Y-23671704D02*
X6970550Y-23576466D01*
X6970550Y-23576466D02*
X6922931Y-23528847D01*
X6922931Y-23528847D02*
X6827693Y-23481228D01*
X6827693Y-23481228D02*
X6637217Y-23433609D01*
X6637217Y-23433609D02*
X6541979Y-23385990D01*
X6541979Y-23385990D02*
X6494360Y-23338371D01*
X6494360Y-23338371D02*
X6446741Y-23243133D01*
X6446741Y-23243133D02*
X6446741Y-23147895D01*
X6446741Y-23147895D02*
X6494360Y-23052657D01*
X6494360Y-23052657D02*
X6541979Y-23005038D01*
X6541979Y-23005038D02*
X6637217Y-22957419D01*
X6637217Y-22957419D02*
X6875312Y-22957419D01*
X6875312Y-22957419D02*
X7018169Y-23005038D01*
X7446741Y-23957419D02*
X7446741Y-22957419D01*
X4161027Y-20207419D02*
X4494360Y-21207419D01*
X4494360Y-21207419D02*
X4827693Y-20207419D01*
X5732455Y-21112180D02*
X5684836Y-21159800D01*
X5684836Y-21159800D02*
X5541979Y-21207419D01*
X5541979Y-21207419D02*
X5446741Y-21207419D01*
X5446741Y-21207419D02*
X5303884Y-21159800D01*
X5303884Y-21159800D02*
X5208646Y-21064561D01*
X5208646Y-21064561D02*
X5161027Y-20969323D01*
X5161027Y-20969323D02*
X5113408Y-20778847D01*
X5113408Y-20778847D02*
X5113408Y-20635990D01*
X5113408Y-20635990D02*
X5161027Y-20445514D01*
X5161027Y-20445514D02*
X5208646Y-20350276D01*
X5208646Y-20350276D02*
X5303884Y-20255038D01*
X5303884Y-20255038D02*
X5446741Y-20207419D01*
X5446741Y-20207419D02*
X5541979Y-20207419D01*
X5541979Y-20207419D02*
X5684836Y-20255038D01*
X5684836Y-20255038D02*
X5732455Y-20302657D01*
X6732455Y-21112180D02*
X6684836Y-21159800D01*
X6684836Y-21159800D02*
X6541979Y-21207419D01*
X6541979Y-21207419D02*
X6446741Y-21207419D01*
X6446741Y-21207419D02*
X6303884Y-21159800D01*
X6303884Y-21159800D02*
X6208646Y-21064561D01*
X6208646Y-21064561D02*
X6161027Y-20969323D01*
X6161027Y-20969323D02*
X6113408Y-20778847D01*
X6113408Y-20778847D02*
X6113408Y-20635990D01*
X6113408Y-20635990D02*
X6161027Y-20445514D01*
X6161027Y-20445514D02*
X6208646Y-20350276D01*
X6208646Y-20350276D02*
X6303884Y-20255038D01*
X6303884Y-20255038D02*
X6446741Y-20207419D01*
X6446741Y-20207419D02*
X6541979Y-20207419D01*
X6541979Y-20207419D02*
X6684836Y-20255038D01*
X6684836Y-20255038D02*
X6732455Y-20302657D01*
X-5946741Y-21207419D02*
X-5946741Y-20207419D01*
X-5946741Y-20207419D02*
X-5613408Y-20921704D01*
X-5613408Y-20921704D02*
X-5280075Y-20207419D01*
X-5280075Y-20207419D02*
X-5280075Y-21207419D01*
X-4803884Y-21207419D02*
X-4803884Y-20207419D01*
X-4375313Y-21159800D02*
X-4232456Y-21207419D01*
X-4232456Y-21207419D02*
X-3994361Y-21207419D01*
X-3994361Y-21207419D02*
X-3899123Y-21159800D01*
X-3899123Y-21159800D02*
X-3851504Y-21112180D01*
X-3851504Y-21112180D02*
X-3803885Y-21016942D01*
X-3803885Y-21016942D02*
X-3803885Y-20921704D01*
X-3803885Y-20921704D02*
X-3851504Y-20826466D01*
X-3851504Y-20826466D02*
X-3899123Y-20778847D01*
X-3899123Y-20778847D02*
X-3994361Y-20731228D01*
X-3994361Y-20731228D02*
X-4184837Y-20683609D01*
X-4184837Y-20683609D02*
X-4280075Y-20635990D01*
X-4280075Y-20635990D02*
X-4327694Y-20588371D01*
X-4327694Y-20588371D02*
X-4375313Y-20493133D01*
X-4375313Y-20493133D02*
X-4375313Y-20397895D01*
X-4375313Y-20397895D02*
X-4327694Y-20302657D01*
X-4327694Y-20302657D02*
X-4280075Y-20255038D01*
X-4280075Y-20255038D02*
X-4184837Y-20207419D01*
X-4184837Y-20207419D02*
X-3946742Y-20207419D01*
X-3946742Y-20207419D02*
X-3803885Y-20255038D01*
X-3184837Y-20207419D02*
X-2994361Y-20207419D01*
X-2994361Y-20207419D02*
X-2899123Y-20255038D01*
X-2899123Y-20255038D02*
X-2803885Y-20350276D01*
X-2803885Y-20350276D02*
X-2756266Y-20540752D01*
X-2756266Y-20540752D02*
X-2756266Y-20874085D01*
X-2756266Y-20874085D02*
X-2803885Y-21064561D01*
X-2803885Y-21064561D02*
X-2899123Y-21159800D01*
X-2899123Y-21159800D02*
X-2994361Y-21207419D01*
X-2994361Y-21207419D02*
X-3184837Y-21207419D01*
X-3184837Y-21207419D02*
X-3280075Y-21159800D01*
X-3280075Y-21159800D02*
X-3375313Y-21064561D01*
X-3375313Y-21064561D02*
X-3422932Y-20874085D01*
X-3422932Y-20874085D02*
X-3422932Y-20540752D01*
X-3422932Y-20540752D02*
X-3375313Y-20350276D01*
X-3375313Y-20350276D02*
X-3280075Y-20255038D01*
X-3280075Y-20255038D02*
X-3184837Y-20207419D01*
X-26291354Y-7207419D02*
X-25672307Y-7207419D01*
X-25672307Y-7207419D02*
X-26005640Y-7588371D01*
X-26005640Y-7588371D02*
X-25862783Y-7588371D01*
X-25862783Y-7588371D02*
X-25767545Y-7635990D01*
X-25767545Y-7635990D02*
X-25719926Y-7683609D01*
X-25719926Y-7683609D02*
X-25672307Y-7778847D01*
X-25672307Y-7778847D02*
X-25672307Y-8016942D01*
X-25672307Y-8016942D02*
X-25719926Y-8112180D01*
X-25719926Y-8112180D02*
X-25767545Y-8159800D01*
X-25767545Y-8159800D02*
X-25862783Y-8207419D01*
X-25862783Y-8207419D02*
X-26148497Y-8207419D01*
X-26148497Y-8207419D02*
X-26243735Y-8159800D01*
X-26243735Y-8159800D02*
X-26291354Y-8112180D01*
X-25243735Y-8112180D02*
X-25196116Y-8159800D01*
X-25196116Y-8159800D02*
X-25243735Y-8207419D01*
X-25243735Y-8207419D02*
X-25291354Y-8159800D01*
X-25291354Y-8159800D02*
X-25243735Y-8112180D01*
X-25243735Y-8112180D02*
X-25243735Y-8207419D01*
X-24862783Y-7207419D02*
X-24243736Y-7207419D01*
X-24243736Y-7207419D02*
X-24577069Y-7588371D01*
X-24577069Y-7588371D02*
X-24434212Y-7588371D01*
X-24434212Y-7588371D02*
X-24338974Y-7635990D01*
X-24338974Y-7635990D02*
X-24291355Y-7683609D01*
X-24291355Y-7683609D02*
X-24243736Y-7778847D01*
X-24243736Y-7778847D02*
X-24243736Y-8016942D01*
X-24243736Y-8016942D02*
X-24291355Y-8112180D01*
X-24291355Y-8112180D02*
X-24338974Y-8159800D01*
X-24338974Y-8159800D02*
X-24434212Y-8207419D01*
X-24434212Y-8207419D02*
X-24719926Y-8207419D01*
X-24719926Y-8207419D02*
X-24815164Y-8159800D01*
X-24815164Y-8159800D02*
X-24862783Y-8112180D01*
X-23958021Y-7207419D02*
X-23624688Y-8207419D01*
X-23624688Y-8207419D02*
X-23291355Y-7207419D01*
X24707419Y-21166666D02*
X24231228Y-21499999D01*
X24707419Y-21738094D02*
X23707419Y-21738094D01*
X23707419Y-21738094D02*
X23707419Y-21357142D01*
X23707419Y-21357142D02*
X23755038Y-21261904D01*
X23755038Y-21261904D02*
X23802657Y-21214285D01*
X23802657Y-21214285D02*
X23897895Y-21166666D01*
X23897895Y-21166666D02*
X24040752Y-21166666D01*
X24040752Y-21166666D02*
X24135990Y-21214285D01*
X24135990Y-21214285D02*
X24183609Y-21261904D01*
X24183609Y-21261904D02*
X24231228Y-21357142D01*
X24231228Y-21357142D02*
X24231228Y-21738094D01*
X23707419Y-20833332D02*
X24707419Y-20166666D01*
X23707419Y-20166666D02*
X24707419Y-20833332D01*
X21707419Y-21761904D02*
X21707419Y-21190476D01*
X22707419Y-21476190D02*
X21707419Y-21476190D01*
X21707419Y-20952380D02*
X22707419Y-20285714D01*
X21707419Y-20285714D02*
X22707419Y-20952380D01*
X4827693Y-25755038D02*
X4732455Y-25707419D01*
X4732455Y-25707419D02*
X4589598Y-25707419D01*
X4589598Y-25707419D02*
X4446741Y-25755038D01*
X4446741Y-25755038D02*
X4351503Y-25850276D01*
X4351503Y-25850276D02*
X4303884Y-25945514D01*
X4303884Y-25945514D02*
X4256265Y-26135990D01*
X4256265Y-26135990D02*
X4256265Y-26278847D01*
X4256265Y-26278847D02*
X4303884Y-26469323D01*
X4303884Y-26469323D02*
X4351503Y-26564561D01*
X4351503Y-26564561D02*
X4446741Y-26659800D01*
X4446741Y-26659800D02*
X4589598Y-26707419D01*
X4589598Y-26707419D02*
X4684836Y-26707419D01*
X4684836Y-26707419D02*
X4827693Y-26659800D01*
X4827693Y-26659800D02*
X4875312Y-26612180D01*
X4875312Y-26612180D02*
X4875312Y-26278847D01*
X4875312Y-26278847D02*
X4684836Y-26278847D01*
X5303884Y-26707419D02*
X5303884Y-25707419D01*
X5303884Y-25707419D02*
X5875312Y-26707419D01*
X5875312Y-26707419D02*
X5875312Y-25707419D01*
X6351503Y-26707419D02*
X6351503Y-25707419D01*
X6351503Y-25707419D02*
X6589598Y-25707419D01*
X6589598Y-25707419D02*
X6732455Y-25755038D01*
X6732455Y-25755038D02*
X6827693Y-25850276D01*
X6827693Y-25850276D02*
X6875312Y-25945514D01*
X6875312Y-25945514D02*
X6922931Y-26135990D01*
X6922931Y-26135990D02*
X6922931Y-26278847D01*
X6922931Y-26278847D02*
X6875312Y-26469323D01*
X6875312Y-26469323D02*
X6827693Y-26564561D01*
X6827693Y-26564561D02*
X6732455Y-26659800D01*
X6732455Y-26659800D02*
X6589598Y-26707419D01*
X6589598Y-26707419D02*
X6351503Y-26707419D01*
X-26338973Y-1207419D02*
X-26005640Y-2207419D01*
X-26005640Y-2207419D02*
X-25672307Y-1207419D01*
X-25338973Y-2207419D02*
X-25338973Y-1207419D01*
X-25338973Y-1207419D02*
X-25005640Y-1921704D01*
X-25005640Y-1921704D02*
X-24672307Y-1207419D01*
X-24672307Y-1207419D02*
X-24672307Y-2207419D01*
X-23624688Y-2112180D02*
X-23672307Y-2159800D01*
X-23672307Y-2159800D02*
X-23815164Y-2207419D01*
X-23815164Y-2207419D02*
X-23910402Y-2207419D01*
X-23910402Y-2207419D02*
X-24053259Y-2159800D01*
X-24053259Y-2159800D02*
X-24148497Y-2064561D01*
X-24148497Y-2064561D02*
X-24196116Y-1969323D01*
X-24196116Y-1969323D02*
X-24243735Y-1778847D01*
X-24243735Y-1778847D02*
X-24243735Y-1635990D01*
X-24243735Y-1635990D02*
X-24196116Y-1445514D01*
X-24196116Y-1445514D02*
X-24148497Y-1350276D01*
X-24148497Y-1350276D02*
X-24053259Y-1255038D01*
X-24053259Y-1255038D02*
X-23910402Y-1207419D01*
X-23910402Y-1207419D02*
X-23815164Y-1207419D01*
X-23815164Y-1207419D02*
X-23672307Y-1255038D01*
X-23672307Y-1255038D02*
X-23624688Y-1302657D01*
X-23196116Y-1207419D02*
X-23196116Y-2016942D01*
X-23196116Y-2016942D02*
X-23148497Y-2112180D01*
X-23148497Y-2112180D02*
X-23100878Y-2159800D01*
X-23100878Y-2159800D02*
X-23005640Y-2207419D01*
X-23005640Y-2207419D02*
X-22815164Y-2207419D01*
X-22815164Y-2207419D02*
X-22719926Y-2159800D01*
X-22719926Y-2159800D02*
X-22672307Y-2112180D01*
X-22672307Y-2112180D02*
X-22624688Y-2016942D01*
X-22624688Y-2016942D02*
X-22624688Y-1207419D01*
X-23292581Y-21838972D02*
X-22292581Y-21505639D01*
X-22292581Y-21505639D02*
X-23292581Y-21172306D01*
X-22292581Y-20838972D02*
X-23292581Y-20838972D01*
X-23292581Y-20838972D02*
X-22578296Y-20505639D01*
X-22578296Y-20505639D02*
X-23292581Y-20172306D01*
X-23292581Y-20172306D02*
X-22292581Y-20172306D01*
X-22387820Y-19124687D02*
X-22340200Y-19172306D01*
X-22340200Y-19172306D02*
X-22292581Y-19315163D01*
X-22292581Y-19315163D02*
X-22292581Y-19410401D01*
X-22292581Y-19410401D02*
X-22340200Y-19553258D01*
X-22340200Y-19553258D02*
X-22435439Y-19648496D01*
X-22435439Y-19648496D02*
X-22530677Y-19696115D01*
X-22530677Y-19696115D02*
X-22721153Y-19743734D01*
X-22721153Y-19743734D02*
X-22864010Y-19743734D01*
X-22864010Y-19743734D02*
X-23054486Y-19696115D01*
X-23054486Y-19696115D02*
X-23149724Y-19648496D01*
X-23149724Y-19648496D02*
X-23244962Y-19553258D01*
X-23244962Y-19553258D02*
X-23292581Y-19410401D01*
X-23292581Y-19410401D02*
X-23292581Y-19315163D01*
X-23292581Y-19315163D02*
X-23244962Y-19172306D01*
X-23244962Y-19172306D02*
X-23197343Y-19124687D01*
X-23292581Y-18696115D02*
X-22483058Y-18696115D01*
X-22483058Y-18696115D02*
X-22387820Y-18648496D01*
X-22387820Y-18648496D02*
X-22340200Y-18600877D01*
X-22340200Y-18600877D02*
X-22292581Y-18505639D01*
X-22292581Y-18505639D02*
X-22292581Y-18315163D01*
X-22292581Y-18315163D02*
X-22340200Y-18219925D01*
X-22340200Y-18219925D02*
X-22387820Y-18172306D01*
X-22387820Y-18172306D02*
X-22483058Y-18124687D01*
X-22483058Y-18124687D02*
X-23292581Y-18124687D01*
X-5327694Y-23909800D02*
X-5184837Y-23957419D01*
X-5184837Y-23957419D02*
X-4946742Y-23957419D01*
X-4946742Y-23957419D02*
X-4851504Y-23909800D01*
X-4851504Y-23909800D02*
X-4803885Y-23862180D01*
X-4803885Y-23862180D02*
X-4756266Y-23766942D01*
X-4756266Y-23766942D02*
X-4756266Y-23671704D01*
X-4756266Y-23671704D02*
X-4803885Y-23576466D01*
X-4803885Y-23576466D02*
X-4851504Y-23528847D01*
X-4851504Y-23528847D02*
X-4946742Y-23481228D01*
X-4946742Y-23481228D02*
X-5137218Y-23433609D01*
X-5137218Y-23433609D02*
X-5232456Y-23385990D01*
X-5232456Y-23385990D02*
X-5280075Y-23338371D01*
X-5280075Y-23338371D02*
X-5327694Y-23243133D01*
X-5327694Y-23243133D02*
X-5327694Y-23147895D01*
X-5327694Y-23147895D02*
X-5280075Y-23052657D01*
X-5280075Y-23052657D02*
X-5232456Y-23005038D01*
X-5232456Y-23005038D02*
X-5137218Y-22957419D01*
X-5137218Y-22957419D02*
X-4899123Y-22957419D01*
X-4899123Y-22957419D02*
X-4756266Y-23005038D01*
X-3756266Y-23862180D02*
X-3803885Y-23909800D01*
X-3803885Y-23909800D02*
X-3946742Y-23957419D01*
X-3946742Y-23957419D02*
X-4041980Y-23957419D01*
X-4041980Y-23957419D02*
X-4184837Y-23909800D01*
X-4184837Y-23909800D02*
X-4280075Y-23814561D01*
X-4280075Y-23814561D02*
X-4327694Y-23719323D01*
X-4327694Y-23719323D02*
X-4375313Y-23528847D01*
X-4375313Y-23528847D02*
X-4375313Y-23385990D01*
X-4375313Y-23385990D02*
X-4327694Y-23195514D01*
X-4327694Y-23195514D02*
X-4280075Y-23100276D01*
X-4280075Y-23100276D02*
X-4184837Y-23005038D01*
X-4184837Y-23005038D02*
X-4041980Y-22957419D01*
X-4041980Y-22957419D02*
X-3946742Y-22957419D01*
X-3946742Y-22957419D02*
X-3803885Y-23005038D01*
X-3803885Y-23005038D02*
X-3756266Y-23052657D01*
X-3327694Y-23957419D02*
X-3327694Y-22957419D01*
X-2756266Y-23957419D02*
X-3184837Y-23385990D01*
X-2756266Y-22957419D02*
X-3327694Y-23528847D01*
X-12792581Y-21791353D02*
X-12792581Y-21172306D01*
X-12792581Y-21172306D02*
X-12411629Y-21505639D01*
X-12411629Y-21505639D02*
X-12411629Y-21362782D01*
X-12411629Y-21362782D02*
X-12364010Y-21267544D01*
X-12364010Y-21267544D02*
X-12316391Y-21219925D01*
X-12316391Y-21219925D02*
X-12221153Y-21172306D01*
X-12221153Y-21172306D02*
X-11983058Y-21172306D01*
X-11983058Y-21172306D02*
X-11887820Y-21219925D01*
X-11887820Y-21219925D02*
X-11840200Y-21267544D01*
X-11840200Y-21267544D02*
X-11792581Y-21362782D01*
X-11792581Y-21362782D02*
X-11792581Y-21648496D01*
X-11792581Y-21648496D02*
X-11840200Y-21743734D01*
X-11840200Y-21743734D02*
X-11887820Y-21791353D01*
X-11887820Y-20743734D02*
X-11840200Y-20696115D01*
X-11840200Y-20696115D02*
X-11792581Y-20743734D01*
X-11792581Y-20743734D02*
X-11840200Y-20791353D01*
X-11840200Y-20791353D02*
X-11887820Y-20743734D01*
X-11887820Y-20743734D02*
X-11792581Y-20743734D01*
X-12792581Y-20362782D02*
X-12792581Y-19743735D01*
X-12792581Y-19743735D02*
X-12411629Y-20077068D01*
X-12411629Y-20077068D02*
X-12411629Y-19934211D01*
X-12411629Y-19934211D02*
X-12364010Y-19838973D01*
X-12364010Y-19838973D02*
X-12316391Y-19791354D01*
X-12316391Y-19791354D02*
X-12221153Y-19743735D01*
X-12221153Y-19743735D02*
X-11983058Y-19743735D01*
X-11983058Y-19743735D02*
X-11887820Y-19791354D01*
X-11887820Y-19791354D02*
X-11840200Y-19838973D01*
X-11840200Y-19838973D02*
X-11792581Y-19934211D01*
X-11792581Y-19934211D02*
X-11792581Y-20219925D01*
X-11792581Y-20219925D02*
X-11840200Y-20315163D01*
X-11840200Y-20315163D02*
X-11887820Y-20362782D01*
X-12792581Y-19458020D02*
X-11792581Y-19124687D01*
X-11792581Y-19124687D02*
X-12792581Y-18791354D01*
X-4470552Y-26707419D02*
X-4803885Y-26231228D01*
X-5041980Y-26707419D02*
X-5041980Y-25707419D01*
X-5041980Y-25707419D02*
X-4661028Y-25707419D01*
X-4661028Y-25707419D02*
X-4565790Y-25755038D01*
X-4565790Y-25755038D02*
X-4518171Y-25802657D01*
X-4518171Y-25802657D02*
X-4470552Y-25897895D01*
X-4470552Y-25897895D02*
X-4470552Y-26040752D01*
X-4470552Y-26040752D02*
X-4518171Y-26135990D01*
X-4518171Y-26135990D02*
X-4565790Y-26183609D01*
X-4565790Y-26183609D02*
X-4661028Y-26231228D01*
X-4661028Y-26231228D02*
X-5041980Y-26231228D01*
X-4089599Y-26659800D02*
X-3946742Y-26707419D01*
X-3946742Y-26707419D02*
X-3708647Y-26707419D01*
X-3708647Y-26707419D02*
X-3613409Y-26659800D01*
X-3613409Y-26659800D02*
X-3565790Y-26612180D01*
X-3565790Y-26612180D02*
X-3518171Y-26516942D01*
X-3518171Y-26516942D02*
X-3518171Y-26421704D01*
X-3518171Y-26421704D02*
X-3565790Y-26326466D01*
X-3565790Y-26326466D02*
X-3613409Y-26278847D01*
X-3613409Y-26278847D02*
X-3708647Y-26231228D01*
X-3708647Y-26231228D02*
X-3899123Y-26183609D01*
X-3899123Y-26183609D02*
X-3994361Y-26135990D01*
X-3994361Y-26135990D02*
X-4041980Y-26088371D01*
X-4041980Y-26088371D02*
X-4089599Y-25993133D01*
X-4089599Y-25993133D02*
X-4089599Y-25897895D01*
X-4089599Y-25897895D02*
X-4041980Y-25802657D01*
X-4041980Y-25802657D02*
X-3994361Y-25755038D01*
X-3994361Y-25755038D02*
X-3899123Y-25707419D01*
X-3899123Y-25707419D02*
X-3661028Y-25707419D01*
X-3661028Y-25707419D02*
X-3518171Y-25755038D01*
X-3232456Y-25707419D02*
X-2661028Y-25707419D01*
X-2946742Y-26707419D02*
X-2946742Y-25707419D01*
X-25767545Y-3207419D02*
X-25958021Y-3207419D01*
X-25958021Y-3207419D02*
X-26053259Y-3255038D01*
X-26053259Y-3255038D02*
X-26100878Y-3302657D01*
X-26100878Y-3302657D02*
X-26196116Y-3445514D01*
X-26196116Y-3445514D02*
X-26243735Y-3635990D01*
X-26243735Y-3635990D02*
X-26243735Y-4016942D01*
X-26243735Y-4016942D02*
X-26196116Y-4112180D01*
X-26196116Y-4112180D02*
X-26148497Y-4159800D01*
X-26148497Y-4159800D02*
X-26053259Y-4207419D01*
X-26053259Y-4207419D02*
X-25862783Y-4207419D01*
X-25862783Y-4207419D02*
X-25767545Y-4159800D01*
X-25767545Y-4159800D02*
X-25719926Y-4112180D01*
X-25719926Y-4112180D02*
X-25672307Y-4016942D01*
X-25672307Y-4016942D02*
X-25672307Y-3778847D01*
X-25672307Y-3778847D02*
X-25719926Y-3683609D01*
X-25719926Y-3683609D02*
X-25767545Y-3635990D01*
X-25767545Y-3635990D02*
X-25862783Y-3588371D01*
X-25862783Y-3588371D02*
X-26053259Y-3588371D01*
X-26053259Y-3588371D02*
X-26148497Y-3635990D01*
X-26148497Y-3635990D02*
X-26196116Y-3683609D01*
X-26196116Y-3683609D02*
X-26243735Y-3778847D01*
X-25386592Y-3207419D02*
X-25053259Y-4207419D01*
X-25053259Y-4207419D02*
X-24719926Y-3207419D01*
X-9244962Y-21172306D02*
X-9292581Y-21267544D01*
X-9292581Y-21267544D02*
X-9292581Y-21410401D01*
X-9292581Y-21410401D02*
X-9244962Y-21553258D01*
X-9244962Y-21553258D02*
X-9149724Y-21648496D01*
X-9149724Y-21648496D02*
X-9054486Y-21696115D01*
X-9054486Y-21696115D02*
X-8864010Y-21743734D01*
X-8864010Y-21743734D02*
X-8721153Y-21743734D01*
X-8721153Y-21743734D02*
X-8530677Y-21696115D01*
X-8530677Y-21696115D02*
X-8435439Y-21648496D01*
X-8435439Y-21648496D02*
X-8340200Y-21553258D01*
X-8340200Y-21553258D02*
X-8292581Y-21410401D01*
X-8292581Y-21410401D02*
X-8292581Y-21315163D01*
X-8292581Y-21315163D02*
X-8340200Y-21172306D01*
X-8340200Y-21172306D02*
X-8387820Y-21124687D01*
X-8387820Y-21124687D02*
X-8721153Y-21124687D01*
X-8721153Y-21124687D02*
X-8721153Y-21315163D01*
X-8292581Y-20696115D02*
X-9292581Y-20696115D01*
X-9292581Y-20696115D02*
X-8292581Y-20124687D01*
X-8292581Y-20124687D02*
X-9292581Y-20124687D01*
X-8292581Y-19648496D02*
X-9292581Y-19648496D01*
X-9292581Y-19648496D02*
X-9292581Y-19410401D01*
X-9292581Y-19410401D02*
X-9244962Y-19267544D01*
X-9244962Y-19267544D02*
X-9149724Y-19172306D01*
X-9149724Y-19172306D02*
X-9054486Y-19124687D01*
X-9054486Y-19124687D02*
X-8864010Y-19077068D01*
X-8864010Y-19077068D02*
X-8721153Y-19077068D01*
X-8721153Y-19077068D02*
X-8530677Y-19124687D01*
X-8530677Y-19124687D02*
X-8435439Y-19172306D01*
X-8435439Y-19172306D02*
X-8340200Y-19267544D01*
X-8340200Y-19267544D02*
X-8292581Y-19410401D01*
X-8292581Y-19410401D02*
X-8292581Y-19648496D01*
X-19792581Y-21267544D02*
X-19792581Y-21458020D01*
X-19792581Y-21458020D02*
X-19744962Y-21553258D01*
X-19744962Y-21553258D02*
X-19697343Y-21600877D01*
X-19697343Y-21600877D02*
X-19554486Y-21696115D01*
X-19554486Y-21696115D02*
X-19364010Y-21743734D01*
X-19364010Y-21743734D02*
X-18983058Y-21743734D01*
X-18983058Y-21743734D02*
X-18887820Y-21696115D01*
X-18887820Y-21696115D02*
X-18840200Y-21648496D01*
X-18840200Y-21648496D02*
X-18792581Y-21553258D01*
X-18792581Y-21553258D02*
X-18792581Y-21362782D01*
X-18792581Y-21362782D02*
X-18840200Y-21267544D01*
X-18840200Y-21267544D02*
X-18887820Y-21219925D01*
X-18887820Y-21219925D02*
X-18983058Y-21172306D01*
X-18983058Y-21172306D02*
X-19221153Y-21172306D01*
X-19221153Y-21172306D02*
X-19316391Y-21219925D01*
X-19316391Y-21219925D02*
X-19364010Y-21267544D01*
X-19364010Y-21267544D02*
X-19411629Y-21362782D01*
X-19411629Y-21362782D02*
X-19411629Y-21553258D01*
X-19411629Y-21553258D02*
X-19364010Y-21648496D01*
X-19364010Y-21648496D02*
X-19316391Y-21696115D01*
X-19316391Y-21696115D02*
X-19221153Y-21743734D01*
X-19792581Y-20886591D02*
X-18792581Y-20553258D01*
X-18792581Y-20553258D02*
X-19792581Y-20219925D01*
X-25719926Y-5207419D02*
X-26196116Y-5207419D01*
X-26196116Y-5207419D02*
X-26243735Y-5683609D01*
X-26243735Y-5683609D02*
X-26196116Y-5635990D01*
X-26196116Y-5635990D02*
X-26100878Y-5588371D01*
X-26100878Y-5588371D02*
X-25862783Y-5588371D01*
X-25862783Y-5588371D02*
X-25767545Y-5635990D01*
X-25767545Y-5635990D02*
X-25719926Y-5683609D01*
X-25719926Y-5683609D02*
X-25672307Y-5778847D01*
X-25672307Y-5778847D02*
X-25672307Y-6016942D01*
X-25672307Y-6016942D02*
X-25719926Y-6112180D01*
X-25719926Y-6112180D02*
X-25767545Y-6159800D01*
X-25767545Y-6159800D02*
X-25862783Y-6207419D01*
X-25862783Y-6207419D02*
X-26100878Y-6207419D01*
X-26100878Y-6207419D02*
X-26196116Y-6159800D01*
X-26196116Y-6159800D02*
X-26243735Y-6112180D01*
X-25386592Y-5207419D02*
X-25053259Y-6207419D01*
X-25053259Y-6207419D02*
X-24719926Y-5207419D01*
X24936592Y-8207419D02*
X24936592Y-7207419D01*
X24936592Y-7207419D02*
X25317544Y-7207419D01*
X25317544Y-7207419D02*
X25412782Y-7255038D01*
X25412782Y-7255038D02*
X25460401Y-7302657D01*
X25460401Y-7302657D02*
X25508020Y-7397895D01*
X25508020Y-7397895D02*
X25508020Y-7540752D01*
X25508020Y-7540752D02*
X25460401Y-7635990D01*
X25460401Y-7635990D02*
X25412782Y-7683609D01*
X25412782Y-7683609D02*
X25317544Y-7731228D01*
X25317544Y-7731228D02*
X24936592Y-7731228D01*
X25841354Y-7207419D02*
X26079449Y-8207419D01*
X26079449Y-8207419D02*
X26269925Y-7493133D01*
X26269925Y-7493133D02*
X26460401Y-8207419D01*
X26460401Y-8207419D02*
X26698497Y-7207419D01*
X27079449Y-8207419D02*
X27079449Y-7207419D01*
X27079449Y-7207419D02*
X27412782Y-7921704D01*
X27412782Y-7921704D02*
X27746115Y-7207419D01*
X27746115Y-7207419D02*
X27746115Y-8207419D01*
X26841353Y-9707419D02*
X26650877Y-9707419D01*
X26650877Y-9707419D02*
X26555639Y-9755038D01*
X26555639Y-9755038D02*
X26508020Y-9802657D01*
X26508020Y-9802657D02*
X26412782Y-9945514D01*
X26412782Y-9945514D02*
X26365163Y-10135990D01*
X26365163Y-10135990D02*
X26365163Y-10516942D01*
X26365163Y-10516942D02*
X26412782Y-10612180D01*
X26412782Y-10612180D02*
X26460401Y-10659800D01*
X26460401Y-10659800D02*
X26555639Y-10707419D01*
X26555639Y-10707419D02*
X26746115Y-10707419D01*
X26746115Y-10707419D02*
X26841353Y-10659800D01*
X26841353Y-10659800D02*
X26888972Y-10612180D01*
X26888972Y-10612180D02*
X26936591Y-10516942D01*
X26936591Y-10516942D02*
X26936591Y-10278847D01*
X26936591Y-10278847D02*
X26888972Y-10183609D01*
X26888972Y-10183609D02*
X26841353Y-10135990D01*
X26841353Y-10135990D02*
X26746115Y-10088371D01*
X26746115Y-10088371D02*
X26555639Y-10088371D01*
X26555639Y-10088371D02*
X26460401Y-10135990D01*
X26460401Y-10135990D02*
X26412782Y-10183609D01*
X26412782Y-10183609D02*
X26365163Y-10278847D01*
X27222306Y-9707419D02*
X27555639Y-10707419D01*
X27555639Y-10707419D02*
X27888972Y-9707419D01*
X25698496Y-12255038D02*
X25603258Y-12207419D01*
X25603258Y-12207419D02*
X25460401Y-12207419D01*
X25460401Y-12207419D02*
X25317544Y-12255038D01*
X25317544Y-12255038D02*
X25222306Y-12350276D01*
X25222306Y-12350276D02*
X25174687Y-12445514D01*
X25174687Y-12445514D02*
X25127068Y-12635990D01*
X25127068Y-12635990D02*
X25127068Y-12778847D01*
X25127068Y-12778847D02*
X25174687Y-12969323D01*
X25174687Y-12969323D02*
X25222306Y-13064561D01*
X25222306Y-13064561D02*
X25317544Y-13159800D01*
X25317544Y-13159800D02*
X25460401Y-13207419D01*
X25460401Y-13207419D02*
X25555639Y-13207419D01*
X25555639Y-13207419D02*
X25698496Y-13159800D01*
X25698496Y-13159800D02*
X25746115Y-13112180D01*
X25746115Y-13112180D02*
X25746115Y-12778847D01*
X25746115Y-12778847D02*
X25555639Y-12778847D01*
X26174687Y-13207419D02*
X26174687Y-12207419D01*
X26174687Y-12207419D02*
X26746115Y-13207419D01*
X26746115Y-13207419D02*
X26746115Y-12207419D01*
X27222306Y-13207419D02*
X27222306Y-12207419D01*
X27222306Y-12207419D02*
X27460401Y-12207419D01*
X27460401Y-12207419D02*
X27603258Y-12255038D01*
X27603258Y-12255038D02*
X27698496Y-12350276D01*
X27698496Y-12350276D02*
X27746115Y-12445514D01*
X27746115Y-12445514D02*
X27793734Y-12635990D01*
X27793734Y-12635990D02*
X27793734Y-12778847D01*
X27793734Y-12778847D02*
X27746115Y-12969323D01*
X27746115Y-12969323D02*
X27698496Y-13064561D01*
X27698496Y-13064561D02*
X27603258Y-13159800D01*
X27603258Y-13159800D02*
X27460401Y-13207419D01*
X27460401Y-13207419D02*
X27222306Y-13207419D01*
X-12792581Y-27511904D02*
X-12792581Y-26940476D01*
X-11792581Y-27226190D02*
X-12792581Y-27226190D01*
X-11792581Y-26607142D02*
X-12792581Y-26607142D01*
X-12792581Y-26607142D02*
X-12792581Y-26226190D01*
X-12792581Y-26226190D02*
X-12744962Y-26130952D01*
X-12744962Y-26130952D02*
X-12697343Y-26083333D01*
X-12697343Y-26083333D02*
X-12602105Y-26035714D01*
X-12602105Y-26035714D02*
X-12459248Y-26035714D01*
X-12459248Y-26035714D02*
X-12364010Y-26083333D01*
X-12364010Y-26083333D02*
X-12316391Y-26130952D01*
X-12316391Y-26130952D02*
X-12268772Y-26226190D01*
X-12268772Y-26226190D02*
X-12268772Y-26607142D01*
X-12697343Y-25654761D02*
X-12744962Y-25607142D01*
X-12744962Y-25607142D02*
X-12792581Y-25511904D01*
X-12792581Y-25511904D02*
X-12792581Y-25273809D01*
X-12792581Y-25273809D02*
X-12744962Y-25178571D01*
X-12744962Y-25178571D02*
X-12697343Y-25130952D01*
X-12697343Y-25130952D02*
X-12602105Y-25083333D01*
X-12602105Y-25083333D02*
X-12506867Y-25083333D01*
X-12506867Y-25083333D02*
X-12364010Y-25130952D01*
X-12364010Y-25130952D02*
X-11792581Y-25702380D01*
X-11792581Y-25702380D02*
X-11792581Y-25083333D01*
X-19792581Y-27511904D02*
X-19792581Y-26940476D01*
X-18792581Y-27226190D02*
X-19792581Y-27226190D01*
X-18792581Y-26607142D02*
X-19792581Y-26607142D01*
X-19792581Y-26607142D02*
X-19792581Y-26226190D01*
X-19792581Y-26226190D02*
X-19744962Y-26130952D01*
X-19744962Y-26130952D02*
X-19697343Y-26083333D01*
X-19697343Y-26083333D02*
X-19602105Y-26035714D01*
X-19602105Y-26035714D02*
X-19459248Y-26035714D01*
X-19459248Y-26035714D02*
X-19364010Y-26083333D01*
X-19364010Y-26083333D02*
X-19316391Y-26130952D01*
X-19316391Y-26130952D02*
X-19268772Y-26226190D01*
X-19268772Y-26226190D02*
X-19268772Y-26607142D01*
X-19459248Y-25178571D02*
X-18792581Y-25178571D01*
X-19840200Y-25416666D02*
X-19125915Y-25654761D01*
X-19125915Y-25654761D02*
X-19125915Y-25035714D01*
X-1583334Y-17957419D02*
X-1583334Y-18671704D01*
X-1583334Y-18671704D02*
X-1630953Y-18814561D01*
X-1630953Y-18814561D02*
X-1726191Y-18909800D01*
X-1726191Y-18909800D02*
X-1869048Y-18957419D01*
X-1869048Y-18957419D02*
X-1964286Y-18957419D01*
X-583334Y-18957419D02*
X-1154762Y-18957419D01*
X-869048Y-18957419D02*
X-869048Y-17957419D01*
X-869048Y-17957419D02*
X-964286Y-18100276D01*
X-964286Y-18100276D02*
X-1059524Y-18195514D01*
X-1059524Y-18195514D02*
X-1154762Y-18243133D01*
X18166666Y-25957419D02*
X18166666Y-26671704D01*
X18166666Y-26671704D02*
X18119047Y-26814561D01*
X18119047Y-26814561D02*
X18023809Y-26909800D01*
X18023809Y-26909800D02*
X17880952Y-26957419D01*
X17880952Y-26957419D02*
X17785714Y-26957419D01*
X18595238Y-26052657D02*
X18642857Y-26005038D01*
X18642857Y-26005038D02*
X18738095Y-25957419D01*
X18738095Y-25957419D02*
X18976190Y-25957419D01*
X18976190Y-25957419D02*
X19071428Y-26005038D01*
X19071428Y-26005038D02*
X19119047Y-26052657D01*
X19119047Y-26052657D02*
X19166666Y-26147895D01*
X19166666Y-26147895D02*
X19166666Y-26243133D01*
X19166666Y-26243133D02*
X19119047Y-26385990D01*
X19119047Y-26385990D02*
X18547619Y-26957419D01*
X18547619Y-26957419D02*
X19166666Y-26957419D01*
X22707419Y-27238094D02*
X21707419Y-27238094D01*
X21707419Y-27238094D02*
X21707419Y-26999999D01*
X21707419Y-26999999D02*
X21755038Y-26857142D01*
X21755038Y-26857142D02*
X21850276Y-26761904D01*
X21850276Y-26761904D02*
X21945514Y-26714285D01*
X21945514Y-26714285D02*
X22135990Y-26666666D01*
X22135990Y-26666666D02*
X22278847Y-26666666D01*
X22278847Y-26666666D02*
X22469323Y-26714285D01*
X22469323Y-26714285D02*
X22564561Y-26761904D01*
X22564561Y-26761904D02*
X22659800Y-26857142D01*
X22659800Y-26857142D02*
X22707419Y-26999999D01*
X22707419Y-26999999D02*
X22707419Y-27238094D01*
X22040752Y-25809523D02*
X22707419Y-25809523D01*
X21659800Y-26047618D02*
X22374085Y-26285713D01*
X22374085Y-26285713D02*
X22374085Y-25666666D01*
X-9292581Y-27511904D02*
X-9292581Y-26940476D01*
X-8292581Y-27226190D02*
X-9292581Y-27226190D01*
X-8292581Y-26607142D02*
X-9292581Y-26607142D01*
X-9292581Y-26607142D02*
X-9292581Y-26226190D01*
X-9292581Y-26226190D02*
X-9244962Y-26130952D01*
X-9244962Y-26130952D02*
X-9197343Y-26083333D01*
X-9197343Y-26083333D02*
X-9102105Y-26035714D01*
X-9102105Y-26035714D02*
X-8959248Y-26035714D01*
X-8959248Y-26035714D02*
X-8864010Y-26083333D01*
X-8864010Y-26083333D02*
X-8816391Y-26130952D01*
X-8816391Y-26130952D02*
X-8768772Y-26226190D01*
X-8768772Y-26226190D02*
X-8768772Y-26607142D01*
X-8292581Y-25083333D02*
X-8292581Y-25654761D01*
X-8292581Y-25369047D02*
X-9292581Y-25369047D01*
X-9292581Y-25369047D02*
X-9149724Y-25464285D01*
X-9149724Y-25464285D02*
X-9054486Y-25559523D01*
X-9054486Y-25559523D02*
X-9006867Y-25654761D01*
X-31738095Y-6207419D02*
X-31738095Y-5207419D01*
X-31738095Y-5207419D02*
X-31500000Y-5207419D01*
X-31500000Y-5207419D02*
X-31357143Y-5255038D01*
X-31357143Y-5255038D02*
X-31261905Y-5350276D01*
X-31261905Y-5350276D02*
X-31214286Y-5445514D01*
X-31214286Y-5445514D02*
X-31166667Y-5635990D01*
X-31166667Y-5635990D02*
X-31166667Y-5778847D01*
X-31166667Y-5778847D02*
X-31214286Y-5969323D01*
X-31214286Y-5969323D02*
X-31261905Y-6064561D01*
X-31261905Y-6064561D02*
X-31357143Y-6159800D01*
X-31357143Y-6159800D02*
X-31500000Y-6207419D01*
X-31500000Y-6207419D02*
X-31738095Y-6207419D01*
X-30833333Y-5207419D02*
X-30166667Y-5207419D01*
X-30166667Y-5207419D02*
X-30595238Y-6207419D01*
X28011905Y2542581D02*
X28011905Y3542581D01*
X28011905Y3542581D02*
X28392857Y3542581D01*
X28392857Y3542581D02*
X28488095Y3494962D01*
X28488095Y3494962D02*
X28535714Y3447343D01*
X28535714Y3447343D02*
X28583333Y3352105D01*
X28583333Y3352105D02*
X28583333Y3209248D01*
X28583333Y3209248D02*
X28535714Y3114010D01*
X28535714Y3114010D02*
X28488095Y3066391D01*
X28488095Y3066391D02*
X28392857Y3018772D01*
X28392857Y3018772D02*
X28011905Y3018772D01*
X29440476Y3209248D02*
X29440476Y2542581D01*
X29202381Y3590200D02*
X28964286Y2875915D01*
X28964286Y2875915D02*
X29583333Y2875915D01*
X-31738095Y-2207419D02*
X-31738095Y-1207419D01*
X-31738095Y-1207419D02*
X-31500000Y-1207419D01*
X-31500000Y-1207419D02*
X-31357143Y-1255038D01*
X-31357143Y-1255038D02*
X-31261905Y-1350276D01*
X-31261905Y-1350276D02*
X-31214286Y-1445514D01*
X-31214286Y-1445514D02*
X-31166667Y-1635990D01*
X-31166667Y-1635990D02*
X-31166667Y-1778847D01*
X-31166667Y-1778847D02*
X-31214286Y-1969323D01*
X-31214286Y-1969323D02*
X-31261905Y-2064561D01*
X-31261905Y-2064561D02*
X-31357143Y-2159800D01*
X-31357143Y-2159800D02*
X-31500000Y-2207419D01*
X-31500000Y-2207419D02*
X-31738095Y-2207419D01*
X-30690476Y-2207419D02*
X-30500000Y-2207419D01*
X-30500000Y-2207419D02*
X-30404762Y-2159800D01*
X-30404762Y-2159800D02*
X-30357143Y-2112180D01*
X-30357143Y-2112180D02*
X-30261905Y-1969323D01*
X-30261905Y-1969323D02*
X-30214286Y-1778847D01*
X-30214286Y-1778847D02*
X-30214286Y-1397895D01*
X-30214286Y-1397895D02*
X-30261905Y-1302657D01*
X-30261905Y-1302657D02*
X-30309524Y-1255038D01*
X-30309524Y-1255038D02*
X-30404762Y-1207419D01*
X-30404762Y-1207419D02*
X-30595238Y-1207419D01*
X-30595238Y-1207419D02*
X-30690476Y-1255038D01*
X-30690476Y-1255038D02*
X-30738095Y-1302657D01*
X-30738095Y-1302657D02*
X-30785714Y-1397895D01*
X-30785714Y-1397895D02*
X-30785714Y-1635990D01*
X-30785714Y-1635990D02*
X-30738095Y-1731228D01*
X-30738095Y-1731228D02*
X-30690476Y-1778847D01*
X-30690476Y-1778847D02*
X-30595238Y-1826466D01*
X-30595238Y-1826466D02*
X-30404762Y-1826466D01*
X-30404762Y-1826466D02*
X-30309524Y-1778847D01*
X-30309524Y-1778847D02*
X-30261905Y-1731228D01*
X-30261905Y-1731228D02*
X-30214286Y-1635990D01*
X-23292581Y-27511904D02*
X-23292581Y-26940476D01*
X-22292581Y-27226190D02*
X-23292581Y-27226190D01*
X-22292581Y-26607142D02*
X-23292581Y-26607142D01*
X-23292581Y-26607142D02*
X-23292581Y-26226190D01*
X-23292581Y-26226190D02*
X-23244962Y-26130952D01*
X-23244962Y-26130952D02*
X-23197343Y-26083333D01*
X-23197343Y-26083333D02*
X-23102105Y-26035714D01*
X-23102105Y-26035714D02*
X-22959248Y-26035714D01*
X-22959248Y-26035714D02*
X-22864010Y-26083333D01*
X-22864010Y-26083333D02*
X-22816391Y-26130952D01*
X-22816391Y-26130952D02*
X-22768772Y-26226190D01*
X-22768772Y-26226190D02*
X-22768772Y-26607142D01*
X-23292581Y-25130952D02*
X-23292581Y-25607142D01*
X-23292581Y-25607142D02*
X-22816391Y-25654761D01*
X-22816391Y-25654761D02*
X-22864010Y-25607142D01*
X-22864010Y-25607142D02*
X-22911629Y-25511904D01*
X-22911629Y-25511904D02*
X-22911629Y-25273809D01*
X-22911629Y-25273809D02*
X-22864010Y-25178571D01*
X-22864010Y-25178571D02*
X-22816391Y-25130952D01*
X-22816391Y-25130952D02*
X-22721153Y-25083333D01*
X-22721153Y-25083333D02*
X-22483058Y-25083333D01*
X-22483058Y-25083333D02*
X-22387820Y-25130952D01*
X-22387820Y-25130952D02*
X-22340200Y-25178571D01*
X-22340200Y-25178571D02*
X-22292581Y-25273809D01*
X-22292581Y-25273809D02*
X-22292581Y-25511904D01*
X-22292581Y-25511904D02*
X-22340200Y-25607142D01*
X-22340200Y-25607142D02*
X-22387820Y-25654761D01*
X23011905Y-15457419D02*
X23011905Y-14457419D01*
X23011905Y-14457419D02*
X23392857Y-14457419D01*
X23392857Y-14457419D02*
X23488095Y-14505038D01*
X23488095Y-14505038D02*
X23535714Y-14552657D01*
X23535714Y-14552657D02*
X23583333Y-14647895D01*
X23583333Y-14647895D02*
X23583333Y-14790752D01*
X23583333Y-14790752D02*
X23535714Y-14885990D01*
X23535714Y-14885990D02*
X23488095Y-14933609D01*
X23488095Y-14933609D02*
X23392857Y-14981228D01*
X23392857Y-14981228D02*
X23011905Y-14981228D01*
X23964286Y-14552657D02*
X24011905Y-14505038D01*
X24011905Y-14505038D02*
X24107143Y-14457419D01*
X24107143Y-14457419D02*
X24345238Y-14457419D01*
X24345238Y-14457419D02*
X24440476Y-14505038D01*
X24440476Y-14505038D02*
X24488095Y-14552657D01*
X24488095Y-14552657D02*
X24535714Y-14647895D01*
X24535714Y-14647895D02*
X24535714Y-14743133D01*
X24535714Y-14743133D02*
X24488095Y-14885990D01*
X24488095Y-14885990D02*
X23916667Y-15457419D01*
X23916667Y-15457419D02*
X24535714Y-15457419D01*
X24707419Y-27238094D02*
X23707419Y-27238094D01*
X23707419Y-27238094D02*
X23707419Y-26999999D01*
X23707419Y-26999999D02*
X23755038Y-26857142D01*
X23755038Y-26857142D02*
X23850276Y-26761904D01*
X23850276Y-26761904D02*
X23945514Y-26714285D01*
X23945514Y-26714285D02*
X24135990Y-26666666D01*
X24135990Y-26666666D02*
X24278847Y-26666666D01*
X24278847Y-26666666D02*
X24469323Y-26714285D01*
X24469323Y-26714285D02*
X24564561Y-26761904D01*
X24564561Y-26761904D02*
X24659800Y-26857142D01*
X24659800Y-26857142D02*
X24707419Y-26999999D01*
X24707419Y-26999999D02*
X24707419Y-27238094D01*
X23707419Y-25761904D02*
X23707419Y-26238094D01*
X23707419Y-26238094D02*
X24183609Y-26285713D01*
X24183609Y-26285713D02*
X24135990Y-26238094D01*
X24135990Y-26238094D02*
X24088371Y-26142856D01*
X24088371Y-26142856D02*
X24088371Y-25904761D01*
X24088371Y-25904761D02*
X24135990Y-25809523D01*
X24135990Y-25809523D02*
X24183609Y-25761904D01*
X24183609Y-25761904D02*
X24278847Y-25714285D01*
X24278847Y-25714285D02*
X24516942Y-25714285D01*
X24516942Y-25714285D02*
X24612180Y-25761904D01*
X24612180Y-25761904D02*
X24659800Y-25809523D01*
X24659800Y-25809523D02*
X24707419Y-25904761D01*
X24707419Y-25904761D02*
X24707419Y-26142856D01*
X24707419Y-26142856D02*
X24659800Y-26238094D01*
X24659800Y-26238094D02*
X24612180Y-26285713D01*
X-31738095Y-4207419D02*
X-31738095Y-3207419D01*
X-31738095Y-3207419D02*
X-31500000Y-3207419D01*
X-31500000Y-3207419D02*
X-31357143Y-3255038D01*
X-31357143Y-3255038D02*
X-31261905Y-3350276D01*
X-31261905Y-3350276D02*
X-31214286Y-3445514D01*
X-31214286Y-3445514D02*
X-31166667Y-3635990D01*
X-31166667Y-3635990D02*
X-31166667Y-3778847D01*
X-31166667Y-3778847D02*
X-31214286Y-3969323D01*
X-31214286Y-3969323D02*
X-31261905Y-4064561D01*
X-31261905Y-4064561D02*
X-31357143Y-4159800D01*
X-31357143Y-4159800D02*
X-31500000Y-4207419D01*
X-31500000Y-4207419D02*
X-31738095Y-4207419D01*
X-30595238Y-3635990D02*
X-30690476Y-3588371D01*
X-30690476Y-3588371D02*
X-30738095Y-3540752D01*
X-30738095Y-3540752D02*
X-30785714Y-3445514D01*
X-30785714Y-3445514D02*
X-30785714Y-3397895D01*
X-30785714Y-3397895D02*
X-30738095Y-3302657D01*
X-30738095Y-3302657D02*
X-30690476Y-3255038D01*
X-30690476Y-3255038D02*
X-30595238Y-3207419D01*
X-30595238Y-3207419D02*
X-30404762Y-3207419D01*
X-30404762Y-3207419D02*
X-30309524Y-3255038D01*
X-30309524Y-3255038D02*
X-30261905Y-3302657D01*
X-30261905Y-3302657D02*
X-30214286Y-3397895D01*
X-30214286Y-3397895D02*
X-30214286Y-3445514D01*
X-30214286Y-3445514D02*
X-30261905Y-3540752D01*
X-30261905Y-3540752D02*
X-30309524Y-3588371D01*
X-30309524Y-3588371D02*
X-30404762Y-3635990D01*
X-30404762Y-3635990D02*
X-30595238Y-3635990D01*
X-30595238Y-3635990D02*
X-30690476Y-3683609D01*
X-30690476Y-3683609D02*
X-30738095Y-3731228D01*
X-30738095Y-3731228D02*
X-30785714Y-3826466D01*
X-30785714Y-3826466D02*
X-30785714Y-4016942D01*
X-30785714Y-4016942D02*
X-30738095Y-4112180D01*
X-30738095Y-4112180D02*
X-30690476Y-4159800D01*
X-30690476Y-4159800D02*
X-30595238Y-4207419D01*
X-30595238Y-4207419D02*
X-30404762Y-4207419D01*
X-30404762Y-4207419D02*
X-30309524Y-4159800D01*
X-30309524Y-4159800D02*
X-30261905Y-4112180D01*
X-30261905Y-4112180D02*
X-30214286Y-4016942D01*
X-30214286Y-4016942D02*
X-30214286Y-3826466D01*
X-30214286Y-3826466D02*
X-30261905Y-3731228D01*
X-30261905Y-3731228D02*
X-30309524Y-3683609D01*
X-30309524Y-3683609D02*
X-30404762Y-3635990D01*
X-29488095Y2542581D02*
X-29488095Y3542581D01*
X-29488095Y3542581D02*
X-29107143Y3542581D01*
X-29107143Y3542581D02*
X-29011905Y3494962D01*
X-29011905Y3494962D02*
X-28964286Y3447343D01*
X-28964286Y3447343D02*
X-28916667Y3352105D01*
X-28916667Y3352105D02*
X-28916667Y3209248D01*
X-28916667Y3209248D02*
X-28964286Y3114010D01*
X-28964286Y3114010D02*
X-29011905Y3066391D01*
X-29011905Y3066391D02*
X-29107143Y3018772D01*
X-29107143Y3018772D02*
X-29488095Y3018772D01*
X-28583333Y3542581D02*
X-27964286Y3542581D01*
X-27964286Y3542581D02*
X-28297619Y3161629D01*
X-28297619Y3161629D02*
X-28154762Y3161629D01*
X-28154762Y3161629D02*
X-28059524Y3114010D01*
X-28059524Y3114010D02*
X-28011905Y3066391D01*
X-28011905Y3066391D02*
X-27964286Y2971153D01*
X-27964286Y2971153D02*
X-27964286Y2733058D01*
X-27964286Y2733058D02*
X-28011905Y2637820D01*
X-28011905Y2637820D02*
X-28059524Y2590200D01*
X-28059524Y2590200D02*
X-28154762Y2542581D01*
X-28154762Y2542581D02*
X-28440476Y2542581D01*
X-28440476Y2542581D02*
X-28535714Y2590200D01*
X-28535714Y2590200D02*
X-28583333Y2637820D01*
X-24488095Y-15457419D02*
X-24488095Y-14457419D01*
X-24488095Y-14457419D02*
X-24107143Y-14457419D01*
X-24107143Y-14457419D02*
X-24011905Y-14505038D01*
X-24011905Y-14505038D02*
X-23964286Y-14552657D01*
X-23964286Y-14552657D02*
X-23916667Y-14647895D01*
X-23916667Y-14647895D02*
X-23916667Y-14790752D01*
X-23916667Y-14790752D02*
X-23964286Y-14885990D01*
X-23964286Y-14885990D02*
X-24011905Y-14933609D01*
X-24011905Y-14933609D02*
X-24107143Y-14981228D01*
X-24107143Y-14981228D02*
X-24488095Y-14981228D01*
X-22964286Y-15457419D02*
X-23535714Y-15457419D01*
X-23250000Y-15457419D02*
X-23250000Y-14457419D01*
X-23250000Y-14457419D02*
X-23345238Y-14600276D01*
X-23345238Y-14600276D02*
X-23440476Y-14695514D01*
X-23440476Y-14695514D02*
X-23535714Y-14743133D01*
X29707419Y-5333333D02*
X30421704Y-5333333D01*
X30421704Y-5333333D02*
X30564561Y-5380952D01*
X30564561Y-5380952D02*
X30659800Y-5476190D01*
X30659800Y-5476190D02*
X30707419Y-5619047D01*
X30707419Y-5619047D02*
X30707419Y-5714285D01*
X29707419Y-4380952D02*
X29707419Y-4857142D01*
X29707419Y-4857142D02*
X30183609Y-4904761D01*
X30183609Y-4904761D02*
X30135990Y-4857142D01*
X30135990Y-4857142D02*
X30088371Y-4761904D01*
X30088371Y-4761904D02*
X30088371Y-4523809D01*
X30088371Y-4523809D02*
X30135990Y-4428571D01*
X30135990Y-4428571D02*
X30183609Y-4380952D01*
X30183609Y-4380952D02*
X30278847Y-4333333D01*
X30278847Y-4333333D02*
X30516942Y-4333333D01*
X30516942Y-4333333D02*
X30612180Y-4380952D01*
X30612180Y-4380952D02*
X30659800Y-4428571D01*
X30659800Y-4428571D02*
X30707419Y-4523809D01*
X30707419Y-4523809D02*
X30707419Y-4761904D01*
X30707419Y-4761904D02*
X30659800Y-4857142D01*
X30659800Y-4857142D02*
X30612180Y-4904761D01*
X-16292581Y-27511904D02*
X-16292581Y-26940476D01*
X-15292581Y-27226190D02*
X-16292581Y-27226190D01*
X-15292581Y-26607142D02*
X-16292581Y-26607142D01*
X-16292581Y-26607142D02*
X-16292581Y-26226190D01*
X-16292581Y-26226190D02*
X-16244962Y-26130952D01*
X-16244962Y-26130952D02*
X-16197343Y-26083333D01*
X-16197343Y-26083333D02*
X-16102105Y-26035714D01*
X-16102105Y-26035714D02*
X-15959248Y-26035714D01*
X-15959248Y-26035714D02*
X-15864010Y-26083333D01*
X-15864010Y-26083333D02*
X-15816391Y-26130952D01*
X-15816391Y-26130952D02*
X-15768772Y-26226190D01*
X-15768772Y-26226190D02*
X-15768772Y-26607142D01*
X-16292581Y-25702380D02*
X-16292581Y-25083333D01*
X-16292581Y-25083333D02*
X-15911629Y-25416666D01*
X-15911629Y-25416666D02*
X-15911629Y-25273809D01*
X-15911629Y-25273809D02*
X-15864010Y-25178571D01*
X-15864010Y-25178571D02*
X-15816391Y-25130952D01*
X-15816391Y-25130952D02*
X-15721153Y-25083333D01*
X-15721153Y-25083333D02*
X-15483058Y-25083333D01*
X-15483058Y-25083333D02*
X-15387820Y-25130952D01*
X-15387820Y-25130952D02*
X-15340200Y-25178571D01*
X-15340200Y-25178571D02*
X-15292581Y-25273809D01*
X-15292581Y-25273809D02*
X-15292581Y-25559523D01*
X-15292581Y-25559523D02*
X-15340200Y-25654761D01*
X-15340200Y-25654761D02*
X-15387820Y-25702380D01*
X-31738095Y-8207419D02*
X-31738095Y-7207419D01*
X-31738095Y-7207419D02*
X-31500000Y-7207419D01*
X-31500000Y-7207419D02*
X-31357143Y-7255038D01*
X-31357143Y-7255038D02*
X-31261905Y-7350276D01*
X-31261905Y-7350276D02*
X-31214286Y-7445514D01*
X-31214286Y-7445514D02*
X-31166667Y-7635990D01*
X-31166667Y-7635990D02*
X-31166667Y-7778847D01*
X-31166667Y-7778847D02*
X-31214286Y-7969323D01*
X-31214286Y-7969323D02*
X-31261905Y-8064561D01*
X-31261905Y-8064561D02*
X-31357143Y-8159800D01*
X-31357143Y-8159800D02*
X-31500000Y-8207419D01*
X-31500000Y-8207419D02*
X-31738095Y-8207419D01*
X-30309524Y-7207419D02*
X-30500000Y-7207419D01*
X-30500000Y-7207419D02*
X-30595238Y-7255038D01*
X-30595238Y-7255038D02*
X-30642857Y-7302657D01*
X-30642857Y-7302657D02*
X-30738095Y-7445514D01*
X-30738095Y-7445514D02*
X-30785714Y-7635990D01*
X-30785714Y-7635990D02*
X-30785714Y-8016942D01*
X-30785714Y-8016942D02*
X-30738095Y-8112180D01*
X-30738095Y-8112180D02*
X-30690476Y-8159800D01*
X-30690476Y-8159800D02*
X-30595238Y-8207419D01*
X-30595238Y-8207419D02*
X-30404762Y-8207419D01*
X-30404762Y-8207419D02*
X-30309524Y-8159800D01*
X-30309524Y-8159800D02*
X-30261905Y-8112180D01*
X-30261905Y-8112180D02*
X-30214286Y-8016942D01*
X-30214286Y-8016942D02*
X-30214286Y-7778847D01*
X-30214286Y-7778847D02*
X-30261905Y-7683609D01*
X-30261905Y-7683609D02*
X-30309524Y-7635990D01*
X-30309524Y-7635990D02*
X-30404762Y-7588371D01*
X-30404762Y-7588371D02*
X-30595238Y-7588371D01*
X-30595238Y-7588371D02*
X-30690476Y-7635990D01*
X-30690476Y-7635990D02*
X-30738095Y-7683609D01*
X-30738095Y-7683609D02*
X-30785714Y-7778847D01*
%TO.C,J1*%
X-450000Y-19300000D02*
X-2150000Y-19300000D01*
X-2150000Y-19300000D02*
X-2150000Y-21000000D01*
X3450000Y-19500000D02*
X-1950000Y-19500000D01*
X-1950000Y-27500000D01*
X3450000Y-27500000D01*
X3450000Y-19500000D01*
%TO.C,J2*%
X8600000Y-23400000D02*
X8600000Y-25300000D01*
X10700000Y-23400000D02*
X8600000Y-23400000D01*
X14300000Y-23400000D02*
X16400000Y-23400000D01*
X16400000Y-23400000D02*
X16400000Y-25300000D01*
%TO.C,D4*%
X22950000Y-22250000D02*
X22950000Y-25250000D01*
X22950000Y-25250000D02*
X21550000Y-25250000D01*
X21550000Y-25250000D02*
X21550000Y-22250000D01*
%TO.C,D7*%
X-26750000Y-6450000D02*
X-29750000Y-6450000D01*
X-29750000Y-6450000D02*
X-29750000Y-5050000D01*
X-29750000Y-5050000D02*
X-26750000Y-5050000D01*
%TO.C,P4*%
X500000Y3150000D02*
X500000Y18350000D01*
X3300000Y21150000D02*
X24700000Y21150000D01*
X24700000Y350000D02*
X3300000Y350000D01*
X27500000Y18350000D02*
X27500000Y3150000D01*
X500000Y18350000D02*
G75*
G02*
X3300000Y21150000I2800000J0D01*
G01*
X3300000Y350000D02*
G75*
G02*
X500000Y3150000I0J2800000D01*
G01*
X24700000Y21150000D02*
G75*
G02*
X27500000Y18350000I0J-2800000D01*
G01*
X27500000Y3150000D02*
G75*
G02*
X24700000Y350000I-2800000J0D01*
G01*
%TO.C,D9*%
X-26750000Y-2450000D02*
X-29750000Y-2450000D01*
X-29750000Y-2450000D02*
X-29750000Y-1050000D01*
X-29750000Y-1050000D02*
X-26750000Y-1050000D01*
%TO.C,P2*%
X22500000Y-14700000D02*
X22500000Y-3300000D01*
X19700000Y-17500000D02*
X3300000Y-17500000D01*
X19700000Y-500000D02*
X3300000Y-500000D01*
X500000Y-3300000D02*
X500000Y-14700000D01*
X22500000Y-14700000D02*
G75*
G02*
X19700000Y-17500000I-2800000J0D01*
G01*
X19700000Y-500000D02*
G75*
G02*
X22500000Y-3300000I0J-2800000D01*
G01*
X3300000Y-17500000D02*
G75*
G02*
X500000Y-14700000I0J2800000D01*
G01*
X500000Y-3300000D02*
G75*
G02*
X3300000Y-500000I2800000J0D01*
G01*
%TO.C,D5*%
X24950000Y-22250000D02*
X24950000Y-25250000D01*
X24950000Y-25250000D02*
X23550000Y-25250000D01*
X23550000Y-25250000D02*
X23550000Y-22250000D01*
%TO.C,D8*%
X-26750000Y-4450000D02*
X-29750000Y-4450000D01*
X-29750000Y-4450000D02*
X-29750000Y-3050000D01*
X-29750000Y-3050000D02*
X-26750000Y-3050000D01*
%TO.C,P3*%
X-27500000Y3150000D02*
X-27500000Y18350000D01*
X-24700000Y21150000D02*
X-3300000Y21150000D01*
X-3300000Y350000D02*
X-24700000Y350000D01*
X-500000Y18350000D02*
X-500000Y3150000D01*
X-27500000Y18350000D02*
G75*
G02*
X-24700000Y21150000I2800000J0D01*
G01*
X-24700000Y350000D02*
G75*
G02*
X-27500000Y3150000I0J2800000D01*
G01*
X-3300000Y21150000D02*
G75*
G02*
X-500000Y18350000I0J-2800000D01*
G01*
X-500000Y3150000D02*
G75*
G02*
X-3300000Y350000I-2800000J0D01*
G01*
%TO.C,P1*%
X-500000Y-14700000D02*
X-500000Y-3300000D01*
X-3300000Y-17500000D02*
X-19700000Y-17500000D01*
X-3300000Y-500000D02*
X-19700000Y-500000D01*
X-22500000Y-3300000D02*
X-22500000Y-14700000D01*
X-500000Y-14700000D02*
G75*
G02*
X-3300000Y-17500000I-2800000J0D01*
G01*
X-3300000Y-500000D02*
G75*
G02*
X-500000Y-3300000I0J-2800000D01*
G01*
X-19700000Y-17500000D02*
G75*
G02*
X-22500000Y-14700000I0J2800000D01*
G01*
X-22500000Y-3300000D02*
G75*
G02*
X-19700000Y-500000I2800000J0D01*
G01*
%TO.C,J5*%
X30250000Y-6050000D02*
X28550000Y-6050000D01*
X28550000Y-6050000D02*
X28550000Y-7750000D01*
X31750000Y-6250000D02*
X28750000Y-6250000D01*
X28750000Y-14250000D01*
X31750000Y-14250000D01*
X31750000Y-6250000D01*
%TO.C,D6*%
X-26750000Y-8450000D02*
X-29750000Y-8450000D01*
X-29750000Y-8450000D02*
X-29750000Y-7050000D01*
X-29750000Y-7050000D02*
X-26750000Y-7050000D01*
%TD*%
M02*
