M48
; DRILL file {KiCad 9.0.6-1.fc43} date 2026-01-06T11:50:23+0100
; FORMAT={-:-/ absolute / metric / decimal}
; #@! TF.CreationDate,2026-01-06T11:50:23+01:00
; #@! TF.GenerationSoftware,Kicad,Pcbnew,9.0.6-1.fc43
; #@! TF.FileFunction,Plated,1,2,PTH
FMAT,2
METRIC
; #@! TA.AperFunction,Plated,PTH,ViaDrill
T1C0.300
; #@! TA.AperFunction,Plated,PTH,ComponentDrill
T2C1.000
%
G90
G05
T1
X-31.0Y-2.5
X-31.0Y-4.5
X-31.0Y-6.5
X-31.0Y-8.5
X-28.0Y-0.25
X-26.5Y9.0
X-24.25Y-8.75
X-23.75Y12.75
X-23.5Y-6.75
X-23.0Y-6.0
X-21.25Y-22.0
X-20.25Y24.5
X-19.25Y-13.5
X-18.75Y-26.0
X-16.25Y12.5
X-15.25Y16.25
X-13.75Y-11.5
X-9.5Y10.5
X-6.25Y-6.75
X-4.25Y9.0
X-4.25Y-22.0
X-3.0Y3.5
X-2.5Y-22.25
X-1.75Y-14.5
X-1.5Y5.25
X0.0Y16.25
X0.0Y-9.75
X1.0Y-17.25
X1.25Y5.25
X1.75Y9.0
X2.25Y-6.75
X4.0Y-25.25
X4.3Y-19.499
X5.0Y-12.0
X5.145Y-19.593
X5.25Y5.0
X5.25Y-9.5
X5.25Y-18.75
X5.519Y-17.944
X6.25Y-9.5
X6.25Y-14.5
X7.5Y-10.0
X8.0Y-23.25
X8.0Y-24.1
X8.601Y-22.649
X9.292Y-17.958
X15.5Y-20.0
X15.75Y-11.5
X20.0Y-25.75
X21.25Y-21.75
X23.25Y-21.75
X24.25Y-11.25
X26.0Y-10.0
X27.0Y-12.75
T2
X-24.13Y25.77
X-24.13Y23.23
X-21.59Y25.77
X-21.59Y23.23
X-20.39Y-3.285
X-20.35Y1.86
X-19.05Y25.77
X-19.05Y23.23
X-17.85Y-3.285
X-17.81Y19.64
X-17.81Y1.86
X-16.51Y25.77
X-16.51Y23.23
X-15.31Y-3.285
X-15.27Y19.64
X-15.27Y1.86
X-13.97Y25.77
X-13.97Y23.23
X-12.77Y-3.285
X-12.73Y19.64
X-12.73Y1.86
X-11.43Y25.77
X-11.43Y23.23
X-10.23Y-3.285
X-10.19Y19.64
X-10.19Y1.86
X-8.89Y25.77
X-8.89Y23.23
X-7.69Y-3.285
X-7.65Y1.86
X-6.35Y25.77
X-6.35Y23.23
X-5.15Y-3.285
X-3.81Y25.77
X-3.81Y23.23
X-2.61Y-3.285
X-1.27Y25.77
X-1.27Y23.23
X-0.52Y-20.96
X-0.52Y-23.5
X-0.52Y-26.04
X1.27Y25.77
X1.27Y23.23
X2.02Y-20.96
X2.02Y-23.5
X2.02Y-26.04
X2.61Y-3.285
X3.81Y25.77
X3.81Y23.23
X5.15Y-3.285
X6.35Y25.77
X6.35Y23.23
X7.65Y1.86
X7.69Y-3.285
X8.89Y25.77
X8.89Y23.23
X10.19Y19.64
X10.19Y1.86
X10.23Y-3.285
X11.43Y25.77
X11.43Y23.23
X12.73Y19.64
X12.73Y1.86
X12.77Y-3.285
X13.97Y25.77
X13.97Y23.23
X15.27Y19.64
X15.27Y1.86
X15.31Y-3.285
X16.51Y25.77
X16.51Y23.23
X17.81Y19.64
X17.81Y1.86
X17.85Y-3.285
X19.05Y25.77
X19.05Y23.23
X20.35Y1.86
X20.39Y-3.285
X21.59Y25.77
X21.59Y23.23
X24.13Y25.77
X24.13Y23.23
X27.73Y-16.73
X27.73Y-19.27
X30.25Y-7.71
X30.25Y-10.25
X30.25Y-12.79
X30.27Y-16.73
X30.27Y-19.27
M30
